<svg width="204" height="181" viewBox="0 0 204 181" fill="none" xmlns="http://www.w3.org/2000/svg">
    <path
        d="M69.387 0.23476L68.9181 0.46952L67.7461 0.93904L66.8084 1.1738H66.3396C66.3396 1.64332 65.8707 1.87808 65.6363 1.40856H62.3545C62.1201 0.93904 62.1201 0.93904 61.6513 1.1738L60.948 1.64332L60.2448 1.87808C60.0103 2.11284 59.7759 2.3476 59.3071 2.11284C58.6039 1.87808 57.9006 2.11284 57.9006 2.3476L57.4318 3.05188C56.9629 3.5214 56.9629 3.5214 56.9629 3.05188C57.1974 2.3476 56.9629 2.3476 56.7285 3.28664C56.4941 3.5214 56.4941 3.75616 56.2597 3.5214L56.0253 3.75616L55.5565 3.99092L55.322 4.22568V4.6952H54.3844L53.4467 4.92996V5.16472C53.4467 5.63424 53.4467 5.63424 52.9779 5.39948L52.7435 5.63424L52.5091 5.869H51.8058L51.1026 6.10376L50.6337 6.57328L50.1649 7.98184L49.6961 8.68612H49.2272C48.7584 8.68612 48.0552 9.62516 47.8207 10.3294C47.8207 10.799 47.5863 11.2685 46.4142 11.9728L45.4766 12.9118L44.5389 14.3204L43.3669 16.1984C43.1324 17.1375 42.898 17.3722 42.6636 17.3722L42.1948 17.607C42.1948 18.0765 42.1948 18.0765 42.4292 17.8418V18.3113L41.9604 19.2503C42.1948 19.7198 41.9604 19.9546 41.7259 19.9546L41.4915 20.4241C41.7259 20.8936 41.2571 22.3022 41.0227 22.3022C40.7883 22.3022 40.5539 22.537 40.5539 23.0065L40.3195 24.1803C39.8506 24.415 39.8506 25.3541 40.085 25.8236V26.5279L39.8506 27.7017V29.1102C39.6162 29.5798 39.8506 30.284 40.085 30.5188C40.5539 30.7536 40.5539 30.9883 40.085 31.4578V32.8664L40.3195 33.1012L40.5539 33.3359V34.7445L40.3195 35.214L40.5539 35.6835V36.3878L40.7883 36.8573L41.4915 37.0921H41.2571L40.7883 37.3268L41.0227 37.5616L41.2571 39.2049L41.4915 41.083L41.7259 41.5525V42.2568L41.9604 43.1958C41.9604 43.6654 42.4292 45.0739 42.898 45.5435L43.1324 46.2477H43.6013L44.0701 46.4825L43.8357 46.952C43.3669 46.952 43.6013 47.6563 43.8357 47.6563L44.5389 48.8301C44.5389 49.5344 44.7733 49.7691 45.0078 49.7691C45.2422 49.5344 45.4766 49.7691 45.4766 50.7082L45.9454 51.882L46.4142 52.5863L46.8831 53.5253C47.3519 53.76 47.3519 53.9948 47.1175 54.2296L47.3519 55.1686L47.8207 56.3424C47.8207 56.8119 48.7584 58.2205 48.9928 58.2205L49.2272 58.4553L49.4617 58.9248L49.6961 59.6291C49.6961 60.0986 49.9305 60.5681 50.8681 61.2724L51.8058 62.6809C51.5714 62.9157 53.4467 65.7328 53.9155 65.7328V66.2023C54.3844 66.2023 54.3844 66.2023 54.3844 66.6719L54.6188 67.3761L53.4467 67.6109H49.2272C48.0552 67.8457 47.5863 67.8457 46.6487 67.3761C45.711 67.1414 45.4766 67.1414 45.2422 67.6109H43.3669L42.6636 67.3761H41.7259L37.0376 67.6109C36.3344 67.3761 36.1 67.6109 36.1 67.8457H33.287C33.0526 68.0804 32.8182 68.3152 32.3493 68.0804L31.4117 68.3152H30.474L30.0052 68.5499C29.7708 68.3152 29.3019 68.5499 28.8331 68.7847L28.1298 69.0195L27.8954 69.2542L26.4889 69.489L24.848 69.9585L23.9104 70.428C23.4415 70.1933 22.5039 70.6628 22.5039 70.8975H21.5662L21.0974 71.1323L20.863 71.3671C20.863 71.6018 20.6286 71.8366 20.3941 71.6018L20.1597 71.8366L19.2221 72.3061L17.5812 73.2451L16.6435 73.7147L16.1747 73.9494L15.9402 74.1842L15.237 74.6537L14.7682 74.8885C14.7682 74.6537 14.2993 74.6537 13.8305 75.1232L12.424 75.8275L11.7208 76.5318L11.2519 77.0013C11.0175 76.7665 10.3143 77.4708 10.3143 77.9403L10.0799 78.1751L9.84545 78.6446L9.37662 79.1141C8.90779 78.6446 8.43895 79.1141 8.43895 79.8184V80.2879L8.20454 80.0532C8.20454 79.8184 7.97012 79.8184 7.97012 80.2879L7.50129 80.7575L7.03246 80.9922C7.03246 81.6965 6.0948 82.6355 6.0948 82.4008L5.86039 82.6355C6.0948 82.8703 5.86039 83.1051 5.62597 83.3398L5.15714 84.0441L4.45389 84.9831L3.75065 85.9222L3.51623 86.3917L3.28182 88.035L2.81298 88.5045L2.34415 88.9741C2.57857 89.2088 2.10974 90.8521 1.40649 91.5564L0.468831 93.6693C0.468831 95.5473 0.234415 96.2516 0 96.7211L0.234415 97.8949L0.468831 98.5992L0.703246 98.834V102.59L0.937662 104.703C1.02808 105.956 1.43107 107.167 2.10974 108.224L2.57857 108.694C3.0474 108.694 3.0474 108.694 2.81298 108.929V109.398L3.0474 109.633L3.51623 110.337L3.75065 111.042L3.98506 111.511C4.21948 111.511 4.45389 111.746 4.21948 112.215C4.21948 112.45 4.21948 112.92 4.68831 113.154L5.15714 113.859L5.86039 115.267C6.32922 115.971 6.56363 116.206 6.79805 115.971C7.26688 115.971 7.26688 115.971 7.26688 116.441C7.26688 116.91 7.50129 117.145 7.97012 117.145L8.67337 117.615C8.43895 118.084 10.0799 119.728 10.5487 119.728L11.0175 119.962L11.4864 120.667L12.1896 121.136L13.3617 121.84C13.8305 121.84 14.2993 122.075 14.5338 122.545C14.7682 123.014 15.237 123.249 15.7058 123.249L16.8779 123.484C17.1123 123.719 17.5812 123.953 17.8156 123.719L18.2844 123.953L18.5188 124.188H18.7532C18.7532 124.658 19.9253 124.892 20.1597 124.658C20.6286 124.423 21.8006 124.658 22.2695 124.892C22.5039 125.362 23.4415 125.597 24.3792 125.831L25.0824 126.066C25.3169 126.301 25.5513 126.066 25.7857 125.831H26.9578L28.1298 126.301H28.3643L28.8331 126.536C29.7708 127.005 29.7708 127.005 30.0052 126.77L31.1772 126.536H32.3493L32.5837 126.77C32.5837 127.005 33.287 127.24 33.5214 127.005H34.9279C36.1 127.24 36.5688 127.005 37.5065 126.77L39.1474 127.005H42.6636L44.7733 126.77C45.0078 126.301 45.4766 126.301 46.8831 126.301C47.3519 126.301 47.8207 126.301 47.5863 126.066L48.2896 125.831H49.4617L50.1649 125.597H50.8681C51.8058 125.127 54.15 124.658 55.322 124.658H58.3694C58.8383 124.892 58.8383 124.892 58.6039 124.423C58.6039 123.953 59.3071 123.719 60.0103 124.188C60.2448 124.423 60.4792 124.423 61.1824 123.953L62.5889 123.484C63.2922 123.719 63.2922 123.719 63.5266 124.423C63.761 125.362 63.5266 125.831 63.2922 125.831H63.0577L62.3545 127.005L62.1201 127.24C62.3545 127.24 62.8233 127.709 62.5889 128.179H61.8857C61.1824 128.179 61.1824 128.179 61.4168 129.118C61.6513 129.588 61.4168 129.822 61.1824 130.292L60.7136 130.996L60.4792 131.466V132.405C60.948 132.639 60.948 132.639 60.0103 133.578C59.3071 134.048 59.0727 134.518 59.0727 134.987L58.8383 135.691L58.6039 135.926C59.0727 136.396 59.0727 137.1 58.8383 137.335L58.3694 138.039C58.3694 139.917 58.135 140.621 57.6662 141.091V142.499L57.4318 142.969V143.204L57.1974 143.908V144.377L56.7285 146.021L56.4941 147.899C56.2597 148.603 56.2597 148.603 56.7285 148.838C57.1974 149.073 57.1974 149.073 56.9629 149.777C56.7285 150.716 56.4941 152.359 56.9629 152.829L57.1974 154.003L57.6662 155.176C58.135 155.411 58.135 156.35 57.6662 155.881V156.585C57.6662 156.82 57.6662 157.054 57.9006 156.82C57.9006 156.35 58.3694 156.585 58.3694 157.054C58.6039 157.289 58.3694 157.524 58.135 157.759L58.3694 157.994V158.933C57.9006 159.402 57.9006 160.106 58.6039 160.576C59.0727 160.811 59.0727 161.045 59.0727 161.515C58.8383 161.75 59.0727 162.454 59.3071 162.923L59.5415 164.332L59.7759 164.802L60.4792 165.271L61.1824 165.741L61.4168 166.68C61.6513 167.619 62.5889 168.792 62.8233 168.558L63.9954 169.262C63.761 169.497 64.9331 170.671 65.1675 170.436V170.671L65.4019 171.14H65.6363L66.1051 171.844L67.0428 172.314L67.9805 173.018L68.6837 173.488C68.6837 173.957 69.6214 175.131 70.0902 175.131L70.3246 175.366L70.7935 175.601C71.2623 175.366 71.4967 175.601 71.7311 175.835C71.9655 176.07 71.9655 176.305 72.1999 176.07C72.4344 176.07 73.1376 176.54 72.9032 176.774L74.5441 177.713C75.2473 177.713 75.7162 177.948 76.185 178.418L77.1227 178.887L78.0603 179.122C78.2947 179.357 78.7636 179.591 78.998 179.357L79.9357 179.826C80.8733 180.765 82.0454 181 82.9831 180.53H84.1551L86.4993 180.765L88.609 181L88.8434 180.765L89.5467 180.53H90.0155L90.4843 180.296C90.9532 180.061 90.9532 180.061 90.9532 180.53C90.9532 180.765 90.9532 181 91.422 180.765L92.1253 180.53C92.5941 180.296 94.235 180.061 94.4694 180.296H95.1727L96.3447 179.826L98.6889 179.122L99.1577 178.887H99.6266L100.095 178.652C100.564 178.652 101.502 178.183 101.736 177.713C102.205 177.244 103.143 177.009 102.674 177.479L102.908 177.713L103.143 177.244C103.377 176.774 103.377 176.54 103.846 176.774C104.315 176.774 104.549 176.54 104.08 176.07V175.835C104.784 176.07 106.19 175.601 106.19 175.366L106.425 175.131L106.893 174.896L107.128 174.661C107.362 174.896 107.597 174.661 107.831 174.427L108.066 173.957L109.238 173.488L110.41 173.018L110.644 172.314L110.878 172.079C111.347 172.314 113.223 170.905 113.223 170.671L113.691 170.436L114.16 170.201H114.395L115.098 169.732L115.567 169.262L116.504 168.558L116.973 167.619C117.442 167.384 117.677 166.914 117.442 166.914L117.911 166.68L118.614 165.975C118.614 165.506 119.083 165.271 119.317 165.036C119.786 165.036 120.021 164.802 120.021 164.567L120.724 163.628L121.427 162.689C121.193 161.984 121.427 161.515 122.13 161.515L122.834 160.811L124.006 159.167C124.475 158.698 124.709 158.228 124.475 157.994L125.178 157.054C125.647 156.585 125.881 156.35 125.881 155.881C125.647 155.176 125.881 154.237 126.35 154.237C126.819 154.237 127.288 152.125 127.053 151.655L127.288 151.185L127.522 150.951C127.522 150.716 127.991 150.012 128.225 150.246L128.46 150.012L128.928 148.838L129.163 147.429V146.725L129.632 145.786L129.866 145.316C130.101 145.082 130.335 144.612 130.101 144.143L130.335 143.204V142.734C130.101 142.265 130.101 142.265 130.569 141.56C131.273 140.856 131.507 140.387 130.804 139.917V139.447C131.273 138.978 131.273 137.569 130.804 137.1C130.569 136.865 130.569 136.865 131.038 136.63C131.741 136.161 131.741 135.457 131.038 134.987C130.569 134.752 130.569 134.283 130.569 133.813C130.804 133.578 130.569 132.874 130.335 132.17V129.822L130.804 130.527L131.273 131.231H132.914L134.086 131.935C135.023 132.405 135.492 132.639 135.961 132.405C136.664 132.405 136.899 132.405 137.133 132.874C137.367 133.109 137.602 133.344 137.836 133.109C138.071 133.109 138.305 133.109 138.305 133.578L138.54 133.813C138.774 133.344 139.946 133.344 140.415 133.813L141.118 134.283L142.056 134.752L143.228 134.987C143.462 134.752 143.931 134.987 144.165 135.222H147.213C147.447 135.457 147.682 135.691 147.916 135.457H148.619C149.088 135.926 149.323 135.926 149.791 135.691L151.432 135.457H153.542C154.245 135.222 154.245 135.222 154.48 135.691H154.949C155.183 135.457 155.417 135.691 155.886 135.926H156.824L157.293 135.691L158.23 135.457L159.168 135.222C159.637 134.987 160.106 134.987 160.106 135.457C160.34 135.926 161.043 136.161 161.278 135.691C161.512 135.457 163.388 135.222 165.732 135.222L167.841 134.987L170.186 134.752C171.123 134.518 171.592 134.518 171.826 134.048C172.295 133.578 173.467 133.109 175.108 133.109C175.812 133.109 176.28 132.874 176.28 132.639L176.515 132.405L176.984 131.935C176.984 131.466 177.921 130.996 178.156 131.466H178.625L179.562 131.231C180.031 131.231 180.265 130.996 180.265 130.761L180.734 130.292H180.969L181.672 129.822C182.375 129.822 182.844 129.588 182.61 129.353L183.078 129.118C183.547 129.353 183.782 129.118 184.016 128.883L184.485 128.649C184.954 128.649 185.891 127.475 185.657 127.24H186.126C186.36 127.24 186.595 127.24 186.829 126.77C186.829 126.301 187.298 126.066 187.532 126.066L188.704 125.831C189.173 125.597 189.408 125.127 188.939 125.127V124.658L189.408 124.423L189.876 124.188L190.58 123.953C190.814 124.188 192.455 122.545 193.862 120.901C194.096 120.432 194.565 120.197 195.034 120.197C195.502 120.197 195.502 119.962 195.502 119.493C195.502 119.023 197.378 117.145 197.847 117.145L198.081 116.676V115.971L199.019 115.032C199.488 115.032 199.722 114.328 199.488 113.859V113.389C199.956 113.389 200.191 113.389 200.191 112.92V112.45C200.425 112.45 200.66 112.215 200.66 111.746L200.894 110.807L201.363 110.337C201.128 109.633 201.597 108.694 201.832 108.694C202.066 108.694 202.3 108.459 202.3 107.755L202.535 106.112L202.769 104.938L203.004 104.703C203.238 104.468 203.473 104.468 203.238 104.233L203.473 103.999V101.651C204.176 101.651 204.176 98.834 203.473 97.8949V96.7211C203.941 96.2516 203.941 96.2516 203.707 96.0169L203.473 95.5473L203.004 93.904V92.7302L202.769 90.8521C202.769 88.9741 202.535 88.2698 201.832 88.2698C201.597 88.2698 201.363 86.8612 201.832 86.6265C202.066 86.3917 201.832 86.1569 201.597 85.9222L200.894 84.9831L200.425 83.5746L199.722 82.8703C199.722 82.4008 198.784 81.4617 198.784 81.6965L198.55 81.4617L197.612 80.0532L196.675 78.6446L196.44 78.4099L195.971 78.1751C195.971 77.9403 195.737 77.7056 195.502 77.9403L194.096 77.0013L192.689 76.0623L191.517 75.1232L190.345 74.1842L188.001 73.0104L186.829 72.3061L185.891 72.0713L185.188 71.6018L184.016 71.1323C183.782 70.6628 183.078 70.428 182.61 70.1933L181.203 69.7237C180.969 69.2542 180.734 69.2542 180.5 69.489H180.265L179.328 69.0195C178.859 69.0195 178.625 68.7847 178.625 68.5499C178.625 68.0804 178.625 68.0804 178.156 68.5499H177.687C177.452 68.0804 175.812 67.6109 174.874 67.6109L173.702 67.3761C173.467 66.9066 172.295 66.6719 171.123 66.6719L169.951 66.2023L168.545 65.7328H166.669C165.966 66.2023 165.263 66.2023 165.497 65.7328L164.794 65.4981C164.325 65.7328 163.856 65.9676 163.856 66.6719L163.388 66.9066L163.153 66.4371C163.388 66.2023 163.153 65.9676 162.684 65.7328C161.512 65.2633 161.512 65.2633 162.215 64.559L162.684 63.62C162.45 63.1505 162.684 63.1505 162.919 63.1505C163.153 63.3852 163.388 63.1505 164.091 62.4462C164.794 61.7419 165.028 61.2724 164.56 61.5071V61.0376L165.028 60.0986L165.966 58.9248C166.201 58.2205 166.435 57.9857 166.904 57.9857L167.373 57.5162V57.0467L168.076 56.1077C168.545 55.6381 168.545 55.6381 168.31 55.4034C168.076 55.1686 168.076 55.1686 168.545 55.1686C169.014 55.1686 169.482 54.6991 169.014 54.4643C168.779 53.9948 169.014 53.5253 169.482 53.5253L169.717 53.2905C169.482 53.0558 169.717 52.821 169.951 52.5863H170.186L170.42 52.3515L170.654 51.882L170.889 51.6472C171.358 51.6472 171.358 51.4124 171.123 50.9429L171.358 50.4734L171.826 50.0039L172.061 49.0649L172.53 47.6563C172.764 46.4825 172.999 45.5435 173.467 45.5435L173.702 44.8392V44.1349L174.405 40.6135L173.702 39.4397V39.2049C174.171 39.4397 174.171 38.9702 173.936 38.7354C173.702 38.5006 173.467 38.2659 173.702 38.0311L173.467 37.7964C172.999 37.7964 172.999 37.5616 173.467 36.3878C173.936 35.4488 173.936 34.9792 173.233 34.275C172.764 33.8054 172.764 33.5707 173.233 33.1012V31.6926L172.999 31.4578V30.5188L172.53 30.284H172.295L172.061 29.345C172.295 28.8755 172.061 28.6407 171.826 28.406L171.592 27.9364V24.8846L171.358 23.7108L171.123 23.476C171.123 24.1803 170.42 22.7717 170.42 22.0674C170.42 21.3632 169.951 20.4241 169.717 20.4241C169.248 20.4241 168.31 19.0156 168.31 18.3113C168.31 17.3722 168.076 16.9027 167.607 16.9027L167.138 16.668L166.435 16.4332C165.732 16.4332 164.56 15.4942 164.794 15.0246L164.325 14.5551V14.3204C164.794 14.0856 162.919 11.9728 161.981 11.738C161.278 11.738 160.809 11.5032 160.575 11.0337C160.575 10.799 160.34 10.3294 159.871 10.3294L158.934 9.3904C158.934 8.92088 157.058 7.51232 156.355 7.51232L155.417 7.0428L154.48 6.33852L153.542 6.10376L152.136 5.39948C151.901 4.92996 149.791 4.22568 149.791 4.46044H149.557L149.088 3.99092H148.854C148.854 3.5214 148.151 3.28664 147.213 3.28664L146.51 3.05188L142.759 2.81712L141.821 2.3476L141.352 2.11284H141.118C140.884 1.64332 139.712 1.87808 139.477 2.3476V2.81712H139.008L138.305 2.3476L138.071 2.11284L137.836 2.3476L137.602 2.81712H135.961C135.258 2.3476 134.554 2.58236 133.851 3.05188L131.976 3.5214L130.101 3.75616L129.632 4.22568H129.163C128.46 4.6952 127.288 4.6952 127.053 4.46044L126.35 4.22568H125.647L125.412 3.99092C125.178 3.75616 124.943 3.99092 125.178 4.22568L124.943 4.46044L124.24 4.92996L122.599 5.16472C121.896 5.16472 121.427 5.39948 120.724 5.869L118.849 6.80804L117.911 7.51232L117.677 7.74708H117.208C117.208 7.98184 116.739 8.68612 115.567 9.3904L114.16 10.799L112.988 11.5032L112.519 12.2075L112.285 12.9118L111.816 13.1466C111.816 13.6161 110.644 14.7899 110.175 14.7899L109.941 15.0246L109.706 16.4332L109.472 17.1375L109.238 17.3722L108.3 18.3113L107.597 19.4851C107.362 19.7198 107.128 19.9546 107.362 20.1894C107.362 20.6589 107.362 20.6589 106.893 20.6589C106.19 20.6589 106.19 20.6589 106.425 21.1284L106.19 21.8327C105.956 22.0674 104.549 21.1284 104.784 20.8936L104.315 20.4241C104.08 20.4241 103.846 20.1894 104.08 19.9546C104.08 19.4851 103.846 19.2503 103.612 19.2503L103.377 18.7808L102.908 18.3113L102.44 18.0765L102.205 17.8418L101.736 17.607L101.267 17.1375L101.033 16.668C101.267 16.4332 99.6265 15.2594 99.1577 15.2594L98.6889 14.7899L98.2201 14.0856L97.5168 13.3813L96.3447 12.2075L94.7038 11.0337L94.0006 10.5642L93.2973 10.0947C93.0629 9.3904 91.8908 8.2166 91.422 8.45136L90.7188 7.98184C90.2499 7.51232 90.2499 7.51232 90.0155 7.74708H89.7811V7.27756L89.3123 7.0428L89.0779 6.80804C89.0779 6.57328 88.1402 6.10376 87.9058 6.33852L87.4369 5.869L86.4993 5.16472L85.796 4.92996L85.0928 4.46044L84.3895 3.75616C84.3895 3.28664 84.1551 3.05188 83.4519 2.81712H82.0454L81.811 2.58236L81.5766 2.3476V2.58236L81.3421 2.81712L81.1077 2.58236C81.1077 2.3476 80.8733 2.11284 80.4045 2.11284C79.9357 2.11284 79.7012 2.11284 79.9357 1.87808L79.7012 1.64332L79.4668 1.87808H78.7636L77.8259 1.40856L76.8883 1.1738L75.2473 0.70428H72.6688L69.8558 0L69.387 0.23476ZM75.2473 1.1738H74.7785V0.93904L75.2473 1.1738ZM72.9032 11.5032L74.0753 11.738L75.7162 12.2075L76.185 12.4423H77.1227L77.8259 12.9118C78.2947 12.9118 79.4668 13.3813 79.7012 14.0856L80.8733 14.3204L81.811 14.5551V14.7899L82.0454 14.5551C82.0454 14.3204 82.5142 14.5551 82.7486 15.0246L84.1551 15.9637V16.4332L84.3895 17.1375V17.3722L85.0928 17.607C85.3272 17.8418 85.5616 18.0765 85.796 17.8418L86.2649 18.0765L86.4993 18.546L86.7337 18.7808L87.4369 19.4851L88.3746 19.9546C88.3746 20.4241 89.3123 21.5979 89.7811 21.5979L90.7188 22.3022C91.6564 23.2412 92.8285 23.7108 93.0629 23.476L93.2973 23.7108C92.8285 24.1803 93.2973 24.8846 94.0006 25.1193C94.9382 25.1193 95.4071 25.5888 95.4071 26.0584L96.1103 26.9974C96.5792 27.2322 96.5791 27.7017 96.8136 28.406C96.8136 29.8145 96.8136 29.8145 97.2824 29.8145L97.5168 30.284L97.7512 30.9883L98.2201 32.6316L98.4545 33.1012C98.9233 33.3359 98.9233 33.8054 98.9233 35.4488L98.6889 39.2049L97.9856 43.4306C97.9856 43.9001 98.2201 44.1349 98.4545 44.1349C98.6889 44.3696 98.6889 45.3087 98.2201 45.5435C97.7512 45.7782 97.5168 46.7172 97.7512 47.1868V48.1258L97.2824 49.7691L96.8136 50.9429V51.1777C97.2824 51.1777 96.8136 52.5863 96.3447 52.821L96.1103 53.5253L95.8759 53.9948C95.1727 53.9948 95.1727 54.4643 95.4071 54.6991C96.1103 55.4034 95.6415 56.8119 94.7038 56.8119C94.235 57.0467 93.7662 57.751 93.7662 58.69L93.2973 59.1595V59.3943L93.0629 60.3333L92.5941 61.0376C92.3597 60.8029 92.1253 61.7419 92.5941 61.9767C92.8285 62.4462 92.8285 63.1505 92.3597 63.1505L91.422 63.62C91.1876 64.0895 90.9532 64.0895 90.4843 63.8547L90.0155 63.62L90.2499 64.7938V65.2633L90.0155 65.7328C90.0155 66.2023 89.3123 65.9676 89.3123 65.4981C89.0779 65.2633 89.3123 65.0285 89.5467 65.0285V64.559C89.3123 64.0895 89.0779 64.0895 88.3746 64.0895C87.6714 64.0895 87.2025 64.3243 87.2025 64.559L86.7337 64.7938C85.796 64.7938 84.624 65.2633 84.624 65.4981C84.624 65.9676 83.6863 66.6719 83.2175 66.6719C82.5142 66.6719 81.3421 67.1414 80.4045 67.8457L79.4668 68.3152C78.998 68.3152 77.5915 69.9585 77.5915 70.1933L77.1227 70.428C76.4194 70.428 76.185 70.6628 76.185 70.8975C76.4194 71.1323 76.185 71.1323 75.9506 71.1323L75.4818 71.3671C75.2473 71.8366 74.5441 71.6018 74.5441 71.1323L74.0753 70.8975L73.372 70.428C73.372 69.9585 72.9032 69.489 72.6688 69.489L71.9655 69.0195L71.4967 68.7847L71.2623 68.3152C71.4967 67.8457 71.4967 67.8457 70.7935 67.8457C69.8558 67.8457 69.1525 67.3761 69.387 66.9066L68.9181 66.4371C67.9805 66.2023 66.8084 64.7938 67.0428 63.8547L66.1051 62.9157L65.1675 62.6809L64.9331 61.9767L64.4642 60.5681L63.761 59.6291C63.9954 59.3943 63.5266 58.69 63.0577 58.69L61.1824 56.1077L60.4792 54.6991L60.0103 53.7601L59.5415 52.5863L58.8383 51.4125L58.6039 51.1777C58.135 51.4124 57.9006 50.9429 57.6662 50.2387L56.9629 48.8301L56.4941 48.3606L56.0253 47.6563C55.5565 47.1868 55.5565 46.7173 55.5565 45.7782L55.322 45.3087L55.0876 44.8392L54.6188 43.9001C54.15 43.6654 53.9155 43.4306 54.15 42.9611C54.15 42.4916 54.15 42.2568 53.6811 42.2568L53.2123 41.3178L52.7435 39.2049L52.2746 37.3268L52.0402 36.3878V35.9183L51.5714 34.0402C51.1026 33.1012 51.1026 32.6316 51.337 32.1621C51.5714 31.4578 51.337 30.7536 50.8681 30.7536V30.0493L51.1026 29.345V27.2322C50.8681 26.9974 51.1026 26.7626 51.337 26.2931L51.8058 24.8846C51.5714 24.6498 51.8058 24.1803 52.0402 23.9455L52.5091 23.2412L52.7435 23.0065V22.3022L52.9779 22.0674L53.4467 21.5979L53.6811 20.8936L54.15 20.4241L55.7909 18.7808L56.0253 18.3113L56.4941 17.8418L57.6662 16.668C59.5415 15.2594 60.0103 14.5551 60.0103 14.3204L60.2448 14.0856C61.4168 14.0856 62.1201 13.8508 62.3545 13.3813C63.0577 12.677 64.4642 11.9728 64.6987 12.2075C64.9331 12.4423 66.3396 12.2075 67.0428 11.738H71.0279L71.4967 11.5032H72.9032ZM137.133 13.1466L140.884 13.8508L142.759 14.0856L144.4 14.5551L145.338 14.7899H145.806C146.51 14.5551 147.213 15.2594 146.978 15.7289C146.978 16.1984 146.978 16.1984 147.213 15.9637C147.682 15.7289 147.682 15.7289 148.151 16.1984C149.088 17.1375 150.729 18.0765 151.432 18.0765L151.667 18.546L152.136 19.2503H152.839C152.839 19.7198 153.777 20.6589 154.011 20.4241L154.245 20.8936C154.245 21.5979 154.714 22.0674 155.652 22.0674C156.121 22.0674 157.293 23.476 157.058 23.9455L157.293 24.415L157.527 24.6498C157.527 25.1193 158.934 26.0584 159.168 25.8236L159.402 26.2931L159.168 26.7626L159.402 27.2322V27.7017C158.934 27.7017 159.168 28.1712 159.871 28.8755L160.809 30.5188L161.043 31.2231V31.9274C160.809 32.3969 161.043 33.5707 161.278 35.4488V38.7354L161.512 39.4397L161.747 39.9092V40.3787L161.278 41.083L161.043 41.5525V42.4916L160.809 43.4306L160.575 44.8392L160.106 45.5435C159.637 45.5435 158.934 46.7172 158.934 47.4215L158.699 47.8911L158.465 48.5953L158.23 49.0649L157.996 49.2996L157.527 50.0039L156.824 50.4734C156.824 50.7082 155.886 51.6472 155.417 51.6472C154.949 51.882 154.949 52.1167 154.949 52.821L154.48 53.2905C154.011 53.2905 153.308 53.5253 152.839 53.9948L151.198 55.1686C150.729 55.4034 150.26 56.1077 150.26 56.5772C150.026 57.0467 149.791 57.5162 148.854 57.751L147.916 58.69C147.916 59.1595 147.682 59.3943 147.447 59.3943H146.978L146.51 59.6291L146.041 60.0986C145.806 60.5681 145.806 61.0376 146.275 60.8029V61.0376H145.806C145.103 60.5681 143.931 61.5071 144.4 62.2114L143.697 62.4462H142.525L142.759 62.6809V63.3852H142.29C142.056 63.1505 140.884 64.0895 140.884 64.559L140.649 64.7938L140.18 65.0285L139.946 65.7328L140.415 65.4981C141.352 65.0285 141.587 64.7938 141.352 65.4981H141.118L140.649 65.7328L140.18 66.2023L139.243 66.9066L137.836 67.6109L136.899 68.3152L136.43 68.5499L135.727 69.0195C135.492 69.489 134.789 69.7237 134.554 69.7237L133.148 70.6628L132.21 71.3671L131.273 72.0713C130.804 72.5409 130.335 72.5409 130.101 72.5409C129.866 72.3061 129.163 72.5409 128.46 73.2451L127.991 73.4799C127.522 73.4799 126.819 72.5409 126.584 71.6018L126.115 70.6628L125.647 70.1933L124.943 69.2542L124.006 68.3152L123.303 67.8457L122.834 67.3761L122.365 66.6719L122.13 66.4371C121.427 66.4371 120.49 65.7328 120.255 65.2633L119.552 64.559L119.317 64.3243C119.317 63.8547 118.38 63.62 118.145 63.8547C117.911 64.0895 117.677 63.8547 117.208 63.62L115.332 62.6809C114.629 62.6809 112.519 61.7419 112.051 61.2724L110.41 60.5681L109.941 60.3333L109.472 59.8638C108.769 59.8638 107.597 59.6291 107.362 58.9248C107.128 58.2205 107.128 57.751 107.597 57.751L107.831 57.2815L108.534 55.4034V53.9948C108.3 53.7601 108.3 53.5253 109.003 53.0558C109.706 52.3515 109.941 52.1167 109.472 51.4125C109.238 50.9429 109.238 50.9429 109.706 50.9429C109.941 50.9429 110.175 50.7082 110.175 49.7691V46.952L110.41 46.4825V46.2477L110.644 45.3087L110.878 44.8392V43.1958C110.41 43.1958 110.175 42.9611 110.644 42.7263V42.2568L110.41 41.5525V40.8482C110.175 40.3787 110.175 40.3787 110.644 40.3787L111.113 40.144V39.2049C111.347 39.2049 110.878 37.7964 110.175 37.0921L109.941 36.6226L110.175 36.3878V34.9792L109.941 33.5707V31.2231L109.706 30.0493L109.472 28.8755C109.238 28.6407 109.472 28.406 109.706 27.9364L109.941 27.2322V26.9974C110.175 26.7626 111.582 24.8846 111.582 24.415L112.051 23.7108C112.285 23.9455 112.988 23.2412 112.988 22.7717L113.223 22.0674C113.457 21.5979 113.691 21.5979 113.926 21.8327C114.16 22.0674 114.16 21.8327 114.629 21.3632C114.864 20.8936 115.098 20.6589 115.567 20.6589C116.27 20.4241 116.973 19.9546 119.083 18.0765C119.317 17.607 120.021 17.3722 120.49 17.1375L121.896 16.4332C123.771 15.2594 124.943 14.7899 125.178 15.0246C125.647 15.2594 127.991 14.5551 127.991 14.3204C127.756 13.8508 128.694 13.6161 129.397 13.8508H130.569C130.804 13.3813 132.21 13.3813 133.617 13.8508L134.32 13.6161H134.789L135.961 13.3813C136.43 12.9118 136.664 12.9118 137.133 13.1466ZM97.2824 28.6407H97.048L97.2824 28.1712V28.6407ZM160.575 65.7328C160.34 65.9676 160.34 65.9676 160.575 65.7328ZM85.796 69.0195C86.2649 69.2542 86.2649 69.489 85.796 69.489C85.3272 69.489 85.0928 69.489 85.0928 69.0195H85.796ZM84.3895 69.7237L84.1551 69.9585L83.9207 69.7237L84.3895 69.489V69.7237ZM161.043 74.4189H164.56C164.794 74.1842 165.028 74.4189 165.497 74.6537H168.31L169.248 74.8885C169.717 75.1232 169.951 75.1232 170.42 74.6537H170.654C170.186 75.358 170.889 75.8275 171.592 75.358H172.53L172.764 75.1232L172.999 75.358C172.764 75.5927 173.467 75.8275 173.936 75.8275L174.171 76.0623L174.639 76.5318H175.577C175.577 76.297 175.343 76.297 175.577 76.5318L176.046 77.0013H176.515L176.749 76.7665L176.984 76.5318L177.687 77.2361C177.921 77.7056 179.797 78.8794 179.797 78.4099L180.031 78.1751V78.6446C180.031 79.1141 180.265 79.3489 181.203 79.3489C182.375 79.5837 182.375 79.5837 182.375 80.0532L183.078 80.5227L183.782 80.7575L184.251 80.9922L184.954 81.6965L185.423 82.166L185.657 82.4008C185.657 82.6355 185.891 82.8703 186.36 82.8703L187.532 83.3398C187.767 83.5746 188.001 83.8093 188.236 83.5746L189.173 84.2789L190.345 85.2179C190.814 85.4527 191.049 85.6874 190.814 86.1569C190.814 86.8612 190.814 87.096 191.752 86.8612L191.986 87.096V87.5655L192.455 88.5045L192.689 88.9741V89.4436L192.924 89.6783C193.158 89.4436 193.393 89.6783 193.393 90.6174V91.3217C193.158 91.5564 193.158 92.0259 194.096 93.6693V94.8431L194.33 95.5473L194.096 96.0169L193.862 96.9559L194.096 98.1297V98.3645L194.565 98.834V99.0687L194.33 99.3035C194.097 101.057 193.705 102.786 193.158 104.468L192.924 104.703C192.689 104.703 192.221 105.642 191.986 106.816C191.986 107.285 191.752 107.52 191.283 107.755C190.814 107.99 190.58 107.99 190.58 108.694L190.111 109.633L189.642 110.572C189.642 110.807 189.408 111.276 188.939 111.276L188.47 111.981L187.767 112.685L187.063 113.389C187.063 113.859 186.595 114.093 186.126 114.093L185.188 114.563L183.313 116.676L182.375 116.911C181.906 116.911 181.906 117.145 181.906 117.615C181.906 118.084 181.906 118.084 181.438 118.084C181.203 117.85 180.734 118.084 180.265 118.554L178.859 119.493L178.39 119.728L177.452 119.962C177.218 119.728 177.218 119.962 176.984 120.197L176.28 120.901C175.577 120.901 175.577 121.136 175.577 121.371C175.577 121.84 175.343 121.84 174.639 121.84L173.702 122.075C173.702 122.545 172.999 122.78 171.826 122.545H170.889L170.42 122.78C169.951 122.78 169.717 123.014 169.717 123.249C169.717 123.719 167.373 123.719 166.669 123.249H166.201C166.435 123.484 165.497 123.719 163.153 123.953L157.762 124.188H157.293C157.058 123.953 154.714 124.188 154.48 124.658L153.542 124.423C152.839 124.188 152.604 124.188 152.604 124.658L152.37 124.892V124.188L151.901 123.953L151.432 124.188H150.964L150.26 123.953H148.854C148.619 124.188 148.385 123.953 147.916 123.719H147.213L146.978 123.953L146.275 123.249L145.806 122.78L142.759 122.31H140.415L138.071 121.136C137.367 121.136 135.492 120.197 134.789 119.258L134.086 118.554H133.851C133.851 118.084 133.148 117.85 132.914 118.319C132.914 118.554 131.976 118.319 130.804 117.615L129.866 116.676C129.397 116.676 129.163 116.206 128.928 115.737L128.225 115.032L127.991 114.563L127.756 114.093C126.836 112.72 126.125 111.216 125.647 109.633V109.163L125.412 108.459L124.943 107.99L124.709 107.755L124.475 107.52V107.285L124.006 106.816L124.24 106.581C124.709 107.051 124.475 106.346 123.771 106.112C123.068 105.407 122.834 105.407 123.537 104.938V104.233L124.709 102.825L124.943 102.355L125.178 101.886L125.412 101.416C125.647 101.416 126.115 100.243 125.881 100.008L126.115 99.773C126.35 100.008 126.35 99.773 126.35 99.0687C126.115 98.3645 126.35 98.1297 126.819 98.3645L127.522 97.8949C127.756 97.6602 127.756 97.6602 127.288 97.6602H127.053L127.288 97.4254L127.991 96.9559V96.4864C127.756 96.7211 127.522 96.4864 127.756 96.2516L128.225 95.5473C128.928 95.5473 129.163 94.6083 128.928 94.1388V93.6693L129.397 93.4345L129.866 92.0259L130.335 90.8521V90.3826L130.569 89.6783L131.038 88.7393V88.035L130.804 86.3917C131.038 84.9831 130.804 84.5136 130.569 84.2789V84.0441C130.804 84.0441 131.038 84.0441 130.804 83.8093H131.273C131.507 84.0441 131.741 83.8093 132.445 83.1051L133.382 82.4008L133.851 81.9313L134.32 81.6965C134.789 81.9313 134.789 81.6965 135.023 81.227L135.727 80.5227L136.195 80.2879L137.133 79.8184C137.836 79.5837 137.836 79.5837 137.836 80.0532L138.071 79.8184C138.54 79.3489 138.774 79.1141 139.243 79.1141C139.946 79.1141 140.18 78.8794 140.649 78.4099C141.118 77.7056 141.352 77.7056 141.587 77.9403C141.821 78.4099 142.525 77.9403 142.759 77.4708L142.993 77.0013H143.697L144.634 76.5318L145.572 76.297L146.275 76.0623H146.978L147.682 75.8275L148.619 75.5927C149.323 75.5927 150.495 75.1232 150.495 74.6537C150.495 74.1842 151.667 74.1842 152.136 74.6537H152.839L155.183 74.4189L157.996 74.1842H158.699L161.043 74.4189ZM48.2896 77.0013C48.2896 76.7665 49.6961 76.7665 49.9305 77.2361H51.8058C52.2746 77.7056 52.5091 77.7056 52.7435 77.4708H53.4467C53.9155 78.1751 54.6188 78.4099 55.0876 78.1751H56.9629L57.9006 78.6446L59.3071 78.8794L60.0103 79.1141L60.948 79.3489L61.8857 79.8184L63.0577 80.2879L63.761 80.7575H64.2298L65.1675 80.9922L65.6363 81.227C65.8707 80.9922 66.3396 81.6965 66.1051 81.6965H66.3396L67.0428 81.9313L67.5116 82.166H68.2149C68.6837 82.4008 68.6837 82.4008 68.2149 82.8703C67.9805 83.3398 67.7461 83.5746 67.9805 83.8093L67.7461 84.7484C67.2772 85.2179 67.0428 87.8003 67.5116 88.2698C67.7461 88.5045 67.7461 88.5045 67.2772 88.7393L66.8084 90.3826V92.4955L67.0428 93.6693V94.3735C66.8084 94.8431 67.0428 95.0778 67.2772 95.5473C67.5116 96.0169 67.7461 96.2516 67.5116 96.4864V97.4254L67.9805 98.3645L68.4493 99.5383L69.1525 100.947L69.8558 102.59L71.4967 104.233C71.9655 104.233 71.9655 104.468 71.7311 104.703C71.7311 105.172 71.7311 105.407 72.1999 105.407L72.4344 105.877C72.1999 105.877 72.6688 106.581 73.372 107.051L74.3097 108.694L73.8409 108.929C73.1376 108.694 72.9032 108.929 72.4344 110.102L71.7311 111.042L71.0279 111.276L70.0902 111.511L69.387 111.981L68.6837 112.215L68.2149 112.45L67.7461 112.685H67.2772L64.9331 113.389L63.0577 113.859L62.3545 114.093L61.4168 114.563L60.4792 114.798L59.7759 115.032C59.5415 115.502 57.1974 115.502 56.9629 115.267L56.2597 115.032H55.322C55.322 115.267 55.0876 115.502 54.6188 115.502L53.6811 115.737L51.5714 116.206C49.4617 116.206 48.9928 116.441 48.2896 116.676L47.3519 116.911C47.3519 116.676 46.8831 116.676 46.8831 117.145L46.1798 117.38H45.2422L44.7733 117.615H44.0701C43.8357 118.084 41.4915 118.084 41.0227 117.85H40.5539L40.3195 117.615V117.38L40.085 117.615H38.4441C38.4441 117.38 37.7409 117.38 37.5065 117.85C37.0376 118.084 37.0376 118.084 36.8032 117.615C36.5688 117.38 35.6311 117.38 35.6311 117.85H35.3967L33.5214 117.615H31.6461L30.474 117.38L28.3643 116.676C27.1922 116.206 26.9578 116.206 26.9578 116.676H26.4889L25.0824 116.206L23.2071 115.737L21.8006 115.267C21.0974 115.267 19.6909 114.563 19.2221 114.093L18.05 113.624L17.1123 113.154L16.1747 112.685C15.7058 112.685 15.4714 112.45 15.4714 112.215C15.7058 111.746 15.237 110.807 15.0026 110.807C14.5338 110.807 13.1273 108.929 13.1273 108.459L12.8928 107.99L12.424 107.285L12.1896 106.816L11.9552 105.642C11.9552 104.233 11.7208 103.764 11.4864 103.764C11.2519 103.764 11.0175 103.529 11.0175 103.06V95.0778L11.2519 94.1388L11.4864 93.1997L12.1896 92.0259L12.8928 90.8521L13.1273 90.3826L13.3617 89.9131C13.5961 88.9741 15.0026 87.096 15.237 87.096C15.7058 87.3307 16.1747 86.6265 16.1747 86.1569C16.1747 85.6874 17.3467 84.7484 17.8156 84.7484H18.05C17.8156 84.5136 18.05 84.2789 18.5188 84.0441C18.9876 84.0441 19.2221 83.8093 19.4565 83.3398C19.6909 82.8703 20.1597 82.4008 21.5662 81.9313L23.4415 80.9922C23.4415 80.5227 24.3792 80.2879 24.6136 80.5227H25.0824L25.3169 80.0532H26.2545C26.4889 80.2879 26.7234 80.2879 27.1922 79.8184C27.4266 79.5837 27.8954 79.3489 28.1298 79.5837L28.5987 79.3489L29.0675 78.8794L29.3019 78.6446H30.2396L30.7084 78.4099L31.1772 78.1751H32.3493C32.3493 78.6446 33.287 78.4099 33.9902 77.7056C34.4591 77.2361 34.6935 77.2361 35.6311 77.2361L36.8032 77.7056L37.0376 77.4708C36.8032 77.2361 37.0376 77.2361 37.7409 77.2361L39.3818 77.4708H44.3045C45.4766 77.0013 46.4142 77.0013 46.6487 77.2361H47.1175C47.3519 77.0013 47.5863 76.7665 47.8207 77.0013H48.2896ZM199.253 114.328V114.563L199.019 114.093C199.019 113.624 199.253 113.859 199.253 114.328ZM85.3272 115.032L86.2649 115.502L86.9681 115.737C87.9058 116.206 88.3746 116.441 88.609 116.206H90.0155C90.0155 116.441 90.2499 116.676 90.4843 116.441L90.9532 116.911C90.9532 117.38 91.1876 117.38 91.8908 117.38L93.0629 117.615H94.235L94.7038 117.85H97.2824L100.095 117.38C101.818 117.403 103.54 117.324 105.253 117.145L106.425 116.676L106.893 116.441C106.893 116.91 107.597 117.145 107.831 116.676L108.066 116.441L109.472 115.737L111.347 114.798C112.051 114.328 112.051 114.328 112.519 114.798L112.988 115.032L113.457 116.206C113.457 117.145 113.926 117.615 114.629 117.38L115.098 117.615L115.567 118.319L115.801 118.789C115.567 119.258 116.27 120.197 116.739 119.962C117.208 119.962 117.911 120.667 117.911 121.136L118.145 121.606L118.614 122.075L119.083 122.545L120.49 125.597L120.724 126.77L120.958 128.414V130.057L121.193 130.527V131.231L121.427 132.639L121.662 133.813C121.896 134.048 121.662 134.283 121.427 134.518C120.958 134.987 120.958 136.161 121.193 137.335V140.856L120.958 141.091L120.724 141.795L120.255 142.499L119.786 145.082L119.317 146.021L119.083 146.96C118.849 147.664 118.849 147.899 118.38 148.134C117.677 148.368 117.677 148.368 117.911 148.838V149.307C117.442 149.307 116.973 150.012 116.973 150.951C116.973 151.655 116.504 152.125 115.801 152.359L114.864 153.533L113.926 154.942C113.457 154.942 113.223 155.411 113.223 155.646L112.519 156.82L111.582 157.759C111.816 158.228 111.347 158.933 111.113 158.933L110.175 159.402L107.831 160.811C106.659 161.515 106.19 161.984 105.956 162.923L105.487 163.393L104.784 163.628L104.315 163.863C104.08 163.628 103.377 164.332 103.377 164.802H102.908C102.205 164.332 101.736 164.567 101.267 165.036L100.564 165.741L100.095 166.21L99.3921 166.68L98.9233 166.914C98.6889 167.384 98.6889 167.384 98.2201 167.149C97.7512 166.914 97.5168 166.914 97.2824 167.384L97.048 167.619H96.3447C95.8759 167.853 95.8759 167.853 96.1103 168.323V169.027C95.6415 169.262 95.4071 169.027 95.4071 168.558C95.4071 168.088 95.1727 168.088 94.7038 168.088C94.0006 168.088 93.7662 168.323 93.7662 168.558H93.5317L92.5941 169.027C91.8908 169.497 91.1876 169.732 91.1876 169.027L90.7188 168.558L90.2499 168.323H90.0155L89.7811 168.558L89.3123 168.792C89.0779 169.027 89.3123 169.027 89.5467 169.027L90.0155 169.262L89.5467 169.497C89.0779 169.262 88.8434 169.497 88.3746 169.966C88.1402 170.436 88.1402 170.436 88.3746 169.966C88.3746 169.497 88.3746 169.497 87.2025 169.497C86.0305 169.732 85.796 169.732 85.5616 169.262L85.0928 169.027H83.4519C82.9831 169.262 82.5142 169.027 81.5766 168.558C81.1077 168.088 80.1701 167.853 79.7012 167.853C79.2324 167.619 78.7636 167.619 78.5292 166.914C78.0603 166.21 77.3571 165.506 76.8883 165.741C76.6538 165.741 75.2473 165.271 75.7162 165.036C75.9506 165.036 74.3097 163.393 73.8409 163.393L72.6688 161.984L71.9655 161.045L71.2623 159.872L70.559 159.167C70.0902 158.933 69.8558 158.698 69.8558 158.228L69.387 157.054L68.9181 155.881L68.6837 155.411V154.237C68.4493 154.472 67.9805 153.768 68.2149 153.064C68.4493 152.594 68.2149 150.481 67.7461 149.777C67.2772 149.073 67.5116 147.899 67.9805 146.96C68.2149 146.49 68.4493 145.786 68.4493 144.377L68.9181 141.795L69.387 140.387L69.8558 139.213C70.3246 138.743 70.7935 137.335 70.3246 137.1V136.396C70.3246 135.926 70.559 135.926 70.7935 135.926C71.4967 136.161 71.4967 135.691 70.7935 134.987C70.3246 134.518 70.3246 134.283 71.0279 134.283C71.4967 134.283 71.7311 133.578 71.7311 132.17C71.7311 131.466 71.9655 131.231 72.1999 130.996L73.372 129.822C73.372 129.118 74.0753 128.179 74.0753 128.414C74.3097 128.649 74.3097 128.649 74.3097 128.179L75.2473 127.005L75.4818 126.301V126.066L75.9506 125.362L76.185 124.423C77.3571 123.249 78.0603 122.545 78.0603 122.075L78.2947 121.84L78.5292 121.371L78.7636 120.901L78.998 120.667L79.4668 119.962V119.023C79.9357 118.554 80.4045 117.85 80.4045 117.145C80.4045 116.676 80.4045 116.676 80.6389 116.911C80.6389 117.145 81.811 116.206 81.811 115.737L82.2798 115.502L82.5142 115.267L84.3895 114.328L85.3272 114.798V115.032Z"
        fill="#0D33AB" />
</svg>