<svg width="1004" height="269" viewBox="0 0 1004 269" fill="none" xmlns="http://www.w3.org/2000/svg">
<path d="M824.153 0.897225C821.989 3.06332 821.989 3.06332 820.366 3.06332C819.825 2.52179 819.283 3.06332 819.283 3.60484L816.578 6.31246L815.496 8.47855L814.414 11.1862C813.332 12.8107 812.791 14.4353 812.791 16.6014L812.25 20.9336L811.708 21.4751L810.085 24.1827L809.003 27.4319V28.5149L808.462 29.5979V30.681L807.921 31.764V32.3056C807.38 32.3056 806.839 35.0132 806.839 38.2623L805.757 40.9699L805.216 42.5945C804.675 43.6775 804.134 43.6775 802.51 43.6775C792.771 44.2191 791.148 44.2191 787.901 45.3021H783.573L781.95 45.8436L779.244 46.3852C776.539 45.8436 774.375 46.3852 774.916 47.4682L770.587 49.0928H769.505V50.7174L770.587 52.3419C772.211 53.425 772.211 53.425 772.211 52.3419C772.211 51.8004 772.752 51.8004 773.293 52.8834C774.375 53.9665 774.916 54.508 776.539 53.9665L778.703 54.508L778.162 55.0495V55.5911H779.244L780.327 55.0495H784.114L785.196 56.1326L786.278 56.6741C787.36 57.7572 789.525 57.7572 790.066 56.6741H790.607L791.689 57.2156C792.23 57.7571 792.771 57.2156 792.771 56.6741C792.771 56.1326 792.771 55.5911 793.853 55.5911C794.394 55.5911 794.935 56.1326 794.394 57.2156L795.476 58.2987H797.1C797.641 58.8402 798.182 58.2987 798.723 57.7572L800.346 57.2156C800.887 58.2987 800.346 63.1724 799.264 64.797L798.723 67.5046V69.6707L798.182 72.9198V76.1689L797.1 77.252L796.559 78.335L795.476 79.9596C794.394 80.5011 793.853 82.1257 795.476 82.6672C796.017 82.6672 796.018 83.2087 794.394 84.2918L792.771 88.0825C792.771 89.707 792.771 90.7901 791.689 91.3316C791.148 92.4146 790.607 92.9562 791.148 95.6638C791.148 98.3714 790.066 101.621 788.984 101.621C787.901 101.621 787.36 103.787 787.901 104.87C788.443 105.411 787.902 107.577 786.819 109.743V111.368L785.737 114.076L783.573 117.866L782.491 120.574L780.327 125.448L778.162 130.321L777.08 132.487C777.621 134.112 775.998 137.361 774.375 137.361V138.444L773.834 139.527L772.752 140.61L772.211 142.235L771.128 144.401L770.587 146.025L767.882 149.816L764.636 154.148L761.93 159.022L760.848 160.105C759.225 160.647 759.225 161.73 759.225 162.813L756.52 164.979L753.814 167.686V169.311L752.732 170.394L751.65 172.019H751.109C750.027 172.019 748.404 174.185 748.945 174.726C748.945 175.809 746.239 177.975 745.157 177.975L743.534 179.058L741.911 181.224L741.37 182.307C742.452 182.307 739.746 184.474 737.582 185.015C734.877 185.557 733.254 187.723 733.254 189.889C733.795 190.972 732.713 192.055 730.548 192.055C728.384 192.596 726.761 194.221 727.302 195.304C727.843 195.846 727.843 195.846 726.761 195.846H725.679L725.138 196.387L724.055 197.47C724.055 198.553 723.514 199.095 722.973 199.095L721.891 200.178H721.35L719.727 201.261C719.186 203.427 718.104 203.427 715.939 201.802L713.775 200.719L715.398 199.095L718.104 197.47L719.186 196.929L720.268 194.763L721.35 192.596C720.809 192.055 721.35 191.513 721.891 191.513L724.055 188.806L726.22 186.64L726.761 186.098C726.22 185.015 727.302 183.391 728.384 183.391C729.466 183.391 730.007 182.849 730.007 181.224C730.007 179.6 730.548 179.058 731.089 178.517C732.171 178.517 733.254 176.892 733.795 174.185L734.877 172.56L735.418 170.394L737.041 167.686C739.205 164.979 739.746 162.813 739.205 161.188C738.664 160.647 739.205 160.105 739.746 159.022L740.829 156.856C740.288 156.314 740.829 155.773 741.37 155.773V153.065C740.829 152.524 741.911 150.358 742.452 149.816L744.075 142.235C743.534 141.693 744.075 140.069 744.616 139.527V133.57C745.157 132.487 745.157 121.657 744.075 120.574L743.534 120.032C741.911 120.032 741.37 117.866 741.911 116.783V115.7L741.37 114.076C741.37 111.909 740.829 110.826 739.746 110.826L738.123 109.202L736.5 107.577L735.418 105.953C734.336 104.87 733.795 104.87 732.713 104.87C731.089 105.411 727.302 104.328 726.761 103.245C725.679 102.162 720.809 101.621 720.268 102.162L719.186 102.704C719.186 102.162 718.645 102.162 719.186 102.704L717.563 103.245L715.398 102.704C715.398 101.621 714.316 102.162 712.152 103.245C711.07 104.328 709.988 104.87 709.447 104.328L707.823 104.87L705.659 105.953L704.577 107.036C704.577 108.66 702.954 110.285 701.331 110.285C699.707 110.285 696.461 111.909 696.461 112.993L695.92 114.617L694.838 115.7L693.215 116.783C692.132 116.783 691.591 117.325 691.591 118.408L689.427 122.198L687.804 125.448C688.345 126.531 687.804 127.072 687.263 127.614L684.016 131.404L682.393 134.653L681.311 137.361L680.229 140.069V141.152L679.688 142.776L679.147 145.484L678.065 148.192C676.983 148.733 676.982 148.733 677.524 149.816V153.607L676.441 156.314L675.359 158.48C675.359 162.271 674.818 163.354 674.277 163.896L673.736 165.52L672.654 168.769L671.572 172.019L671.031 173.643V182.307L670.49 183.932V193.679L671.031 194.763H670.49C669.949 193.138 669.408 194.221 669.949 196.929C669.949 199.095 669.949 199.095 667.784 201.261L665.079 202.885V203.968C666.161 204.51 666.161 204.51 664.538 204.51C663.456 204.51 662.915 205.051 662.915 205.593H662.374L661.833 205.051V205.593L660.75 206.134L659.127 207.218C658.045 208.301 654.799 208.842 653.175 207.218C651.552 206.134 651.011 205.593 651.552 206.676C651.552 207.759 649.929 207.759 649.388 207.218L645.601 206.676H642.354L639.649 205.593L636.943 204.51L634.779 203.427C633.156 203.427 631.533 201.802 632.074 201.261V200.719L630.992 190.43L632.074 187.723C632.615 186.098 633.156 183.932 632.074 183.932V182.307L633.156 181.224L634.779 179.6L636.402 176.351C636.402 173.643 636.943 173.102 637.485 173.102L638.026 172.56H639.108C640.19 172.56 640.731 172.019 639.649 170.935C638.567 170.394 639.108 167.686 640.19 167.145L640.731 166.062L641.272 165.52L641.813 164.437C641.813 162.813 642.895 160.647 643.977 160.647L645.059 159.564H645.601L646.142 158.48C645.601 157.939 646.142 157.397 646.683 156.856L647.224 155.231L649.388 151.982C649.929 151.982 650.47 151.441 650.47 150.358L652.093 148.192L652.634 146.567C652.093 146.025 652.634 145.484 653.717 144.401L654.799 142.235L655.34 140.61V139.527L655.881 138.986C656.963 138.986 659.668 135.736 659.668 134.653L661.292 131.946L662.915 129.238C662.915 127.072 665.62 123.281 666.702 123.281L669.408 120.574C669.408 120.032 672.654 116.783 673.736 116.783C675.9 116.242 675.359 116.783 676.982 112.993C677.524 111.368 678.606 110.826 679.147 110.826V107.577C679.688 107.036 680.229 105.411 679.688 104.328L680.229 102.704V101.621C678.606 101.079 677.524 100.537 678.065 99.4544L677.524 98.3714C676.441 98.3714 676.441 97.8299 676.982 96.2053C676.982 94.5807 676.983 94.5807 675.9 94.5807C674.818 95.1222 674.277 94.5807 673.736 94.0392C673.736 92.9562 671.572 92.4146 671.031 93.4977H664.538L662.915 92.9562L659.668 95.1222L657.504 97.2883C656.422 97.2883 654.258 99.996 653.717 101.621L652.093 103.245L649.929 104.328C649.929 104.87 649.388 105.411 648.306 104.87L646.142 105.411L645.059 106.494L641.813 107.577L638.026 109.202C636.943 109.202 636.402 109.743 636.402 110.285L635.861 110.826H633.697L631.533 111.909L628.286 112.993L625.04 114.617L623.417 115.7L620.711 116.783L618.006 117.325L616.383 118.408L614.219 119.491C613.677 120.032 612.595 120.574 609.89 120.574L603.938 122.198C600.692 123.281 598.528 123.823 595.822 122.198C593.658 121.657 592.576 120.032 593.117 117.866L590.953 112.993V111.368L590.412 110.285C589.871 110.826 589.329 110.285 588.788 109.743L586.083 105.411L585.001 103.245C585.001 102.704 584.46 102.162 583.378 102.162C581.213 102.162 578.508 101.079 578.508 100.537C577.967 99.4544 574.721 99.4544 573.638 100.537L568.769 101.621C564.981 102.162 564.44 102.704 563.899 103.787L562.817 105.953L562.276 107.036C561.194 107.036 560.112 108.66 561.194 109.202C562.276 109.743 561.735 112.451 560.653 112.451C559.571 112.451 559.571 112.993 559.571 114.617L560.112 116.783L560.653 118.949C560.653 120.032 560.653 121.115 561.735 122.198L562.817 123.823C562.817 125.448 564.981 127.614 566.063 127.614C567.146 127.614 567.146 128.155 567.687 129.238L568.769 131.404C569.851 131.404 572.015 134.653 571.474 135.736L572.015 137.903C573.638 140.069 573.638 142.776 572.556 145.484L571.474 148.192V153.607L570.933 154.148L572.015 154.69C572.556 154.148 572.556 154.148 572.015 154.69C571.474 155.773 570.392 159.564 570.392 162.813L569.31 164.979L568.769 167.686C569.31 169.311 569.31 169.311 568.228 169.852C567.687 169.852 567.146 170.394 567.687 170.935L567.146 171.477L564.981 176.351L564.44 177.434V180.141C564.44 180.683 564.44 181.224 563.358 181.224L561.735 183.391C561.194 186.098 561.194 186.64 560.112 186.64C558.489 186.64 557.406 187.181 557.406 188.806L556.324 190.43L553.619 191.513L551.455 193.679C550.373 193.679 549.29 194.762 548.749 196.929L546.585 199.636L543.88 201.261L540.092 203.968L537.928 205.051L535.764 206.134C534.14 206.134 531.976 207.218 531.976 208.301L530.894 208.842L527.648 209.384L526.566 210.467L526.024 211.008C526.024 211.55 521.155 213.716 520.073 213.174L519.532 213.716L518.991 214.257L517.367 215.34H513.58C513.039 214.799 510.333 215.34 510.333 215.882H509.251L507.628 216.423C506.546 216.965 503.841 217.506 502.759 216.423C501.676 215.882 500.053 215.34 500.594 216.423L496.807 216.965H493.56L487.609 215.34C486.526 216.423 486.526 214.799 487.609 212.633C488.691 210.467 489.773 209.925 491.396 208.842C493.019 208.301 494.101 207.218 494.101 206.676C494.101 205.593 496.266 203.968 497.348 203.968L498.43 202.885C498.43 201.802 501.676 199.095 502.759 199.095L504.382 197.47C504.382 196.387 504.923 195.846 505.464 195.846C506.546 195.846 507.628 194.221 507.628 192.596C507.628 191.513 509.792 189.347 510.875 190.43C511.416 190.43 513.58 188.806 513.58 187.723L514.662 186.64C516.285 186.098 517.908 183.932 517.908 182.307C517.908 181.224 518.45 180.683 518.991 180.683C520.073 180.141 521.696 177.975 520.614 177.975L520.073 177.434C520.073 176.351 521.696 175.268 523.86 173.643C525.483 173.102 527.107 169.852 527.107 169.311L527.648 167.686L528.73 165.52L530.894 163.896C533.058 162.813 533.058 162.813 533.058 161.188C532.517 159.022 534.682 153.065 535.764 153.065L536.305 151.982L537.387 149.275L537.928 146.567L539.01 144.401L540.092 140.61L540.633 134.112L540.092 129.78C539.551 128.697 539.01 128.155 539.551 127.614C540.092 127.614 540.092 127.072 539.01 126.531L537.928 123.281L537.387 120.574L536.846 118.949L535.764 117.866C534.682 118.408 534.14 117.325 534.14 115.159L533.599 113.534L533.058 112.451C533.058 111.368 531.435 109.743 530.353 109.743L527.648 107.577L524.942 105.953C524.401 105.953 523.86 105.953 524.401 105.411L523.319 104.87C522.778 105.411 522.237 104.87 521.155 104.328C520.073 103.245 519.532 103.245 517.908 103.787C516.826 104.328 515.744 104.87 514.662 104.328H510.875C508.169 103.787 503.3 106.494 503.3 108.119C503.3 109.202 503.3 109.202 501.676 109.202C501.135 108.66 500.594 109.202 500.053 109.743L498.971 110.826C497.889 110.826 494.643 112.451 494.643 113.534L493.56 114.617C491.937 115.159 483.821 123.281 483.821 124.365L482.198 125.989C480.034 126.531 478.41 128.155 478.952 128.697L475.705 133.57L474.623 135.195C474.623 136.278 473.541 138.444 471.918 138.986C471.377 139.527 470.835 139.527 471.377 141.152C471.377 142.235 471.377 142.776 470.294 142.776C469.212 143.318 468.13 145.484 468.13 147.108L466.507 149.816C465.966 151.441 464.884 151.982 464.343 151.441V151.982C464.884 152.524 464.343 154.69 463.261 155.231C462.178 155.773 461.637 156.856 461.637 157.939L459.473 160.647L457.85 163.896L456.768 166.062L456.227 170.935L455.686 175.809L454.603 179.058L454.062 181.766L453.521 183.932L452.98 185.557V197.47C453.521 200.719 451.357 206.676 449.193 207.218C448.111 207.218 447.57 207.759 447.57 208.842L446.487 209.925C444.864 209.925 441.618 211.55 441.077 212.091L439.454 212.633L437.83 214.257L436.207 214.799L435.125 215.34L432.961 215.882L431.338 216.423H430.255C429.173 215.34 427.009 216.423 427.009 218.048L425.386 219.131L417.811 220.756C417.27 221.297 415.647 221.839 411.859 221.839L409.154 222.38L405.907 222.922L403.202 224.005H402.12C401.579 222.922 401.038 222.922 398.873 222.922C397.25 223.463 396.168 222.922 394.545 222.38C393.463 221.839 392.381 221.297 391.84 221.839L388.593 220.756C388.593 219.673 386.429 218.59 386.429 219.131C385.888 220.214 384.265 218.59 384.265 217.506L383.182 215.882C381.559 214.257 381.018 213.174 381.018 209.384L379.936 206.134C378.854 203.968 379.936 199.095 381.559 198.012L383.182 197.47C384.265 197.47 386.429 195.846 386.429 194.763L386.97 193.679L388.052 192.055L389.675 190.43C391.298 189.889 392.922 188.264 392.922 187.723L394.545 186.098C396.168 184.474 399.414 179.6 399.414 178.517L400.497 176.892C402.12 176.351 405.366 174.185 405.907 173.102C405.907 172.56 406.989 171.477 408.072 171.477L409.695 169.852C409.154 169.311 409.695 169.311 410.236 168.769L410.777 167.686L411.859 166.062L413.482 163.896C414.023 163.354 414.564 162.271 415.647 162.271C416.729 161.73 417.27 160.647 417.811 158.48C418.352 155.773 418.352 155.773 419.975 155.231C421.057 155.231 421.057 155.231 421.057 154.148C421.057 153.065 421.598 152.524 422.68 151.441C424.845 150.358 425.386 149.275 425.386 147.108C425.927 145.484 426.468 144.401 428.632 142.776C430.255 142.235 431.338 140.61 431.338 140.069C432.42 136.278 434.043 133.57 435.125 133.57L436.207 131.404L438.371 127.614L439.995 124.906L441.077 123.823L441.618 122.198L442.159 120.574C443.241 120.574 443.782 118.949 443.241 118.408L443.782 116.783L444.864 114.617L446.487 112.451L447.57 110.285L449.193 106.494L450.275 102.704L450.816 101.079L451.898 98.9129L452.439 96.7468L452.98 94.5807C452.98 92.9562 453.521 91.8731 455.145 90.7901L456.768 88.0825L457.85 85.3748L458.391 82.6672C457.85 82.1257 458.391 81.0426 458.932 80.5011C460.014 78.335 460.555 75.6274 460.555 70.2122L461.637 66.4215L462.178 62.6309V54.508L461.096 51.2589L460.555 49.0928L459.473 46.9267L458.932 45.3021L456.768 43.136C455.686 39.8869 452.439 37.1793 450.816 37.1793H449.734L444.864 35.0132H440.536L436.748 36.0962C434.584 36.0962 432.961 36.0962 432.42 37.1793L429.173 39.3454C428.091 39.3454 427.009 40.4284 426.468 41.5115C425.927 42.053 425.386 42.5945 424.845 42.053C423.763 42.053 423.221 42.053 422.68 43.136L421.598 44.7606L421.057 45.8436L418.893 46.9267C417.27 47.4682 415.105 49.0928 415.105 50.7174L414.023 52.3419L412.4 54.508C411.859 56.6741 408.613 61.0063 407.531 60.4648C406.448 60.4648 405.907 61.5478 406.448 62.6309V64.2554C405.366 64.2554 402.661 67.5046 402.661 68.5876L401.038 70.2122L398.873 74.0028L397.791 76.1689L397.25 76.7105L396.709 77.7935L396.168 78.335L395.086 80.5011C394.004 81.0426 393.463 82.1257 394.004 82.6672C394.004 83.7503 394.004 84.2918 392.922 84.8333C391.298 85.3748 391.298 85.3748 391.84 86.9994L391.298 88.0825H389.675C388.593 89.1655 386.97 92.9562 387.511 93.4977L386.97 94.0392L384.265 100.537L382.641 102.704L381.559 103.245L380.477 105.953L378.854 108.119L377.772 109.743C376.69 110.826 376.149 112.451 376.149 113.534L375.066 115.7C374.525 115.7 372.361 120.574 372.902 121.657L371.279 124.906L369.656 127.614C370.197 128.697 369.115 131.404 368.574 131.404L368.033 132.487L366.95 134.112L365.868 137.361L365.327 140.069L364.786 141.152L364.245 142.235L363.704 143.859L364.245 146.567L364.786 147.65H363.704L362.622 148.733L362.081 149.816L361.54 150.358V151.441L360.999 153.607L360.458 155.773L359.375 156.856L358.293 158.48C358.293 162.813 357.752 164.437 356.67 165.52C355.588 166.603 355.588 167.686 355.588 168.769V170.935L355.047 175.268L354.506 183.391L353.965 186.64C355.047 188.806 355.047 192.055 354.506 193.679L352.883 195.846V196.929C352.883 198.012 352.342 198.553 350.718 200.178L349.095 202.885C349.095 203.968 348.013 204.51 345.308 203.968C344.226 203.968 343.143 205.051 343.143 206.134C343.143 207.218 342.602 207.218 342.061 207.218L340.979 207.759L339.356 209.925L337.733 211.55L336.651 213.716C335.568 214.257 335.027 214.799 333.945 214.257C333.404 213.716 332.863 213.716 332.322 214.799L330.699 215.882L329.617 216.423C329.076 216.965 328.535 217.506 327.993 216.965C327.452 216.965 326.911 217.506 326.911 218.59C326.911 220.214 326.37 220.214 325.288 220.756L322.583 222.38L320.96 222.922C320.419 222.38 317.172 224.005 315.549 225.629L313.385 226.712L311.22 227.254L310.679 228.337L309.597 228.878C309.056 229.42 308.515 229.961 307.974 229.42L305.269 229.962L302.022 230.503L298.235 231.045C296.612 231.586 295.529 231.045 294.447 230.503L291.742 229.962L290.66 229.42L289.037 226.712L287.954 224.546L285.79 216.965C284.708 213.716 283.626 205.593 284.708 205.051L285.79 203.427L288.496 199.636L290.66 196.929L292.824 195.304C294.447 194.763 294.447 194.762 293.906 193.138L294.447 192.055L295.529 191.513C295.529 190.972 298.776 187.181 299.317 187.723L301.481 185.557C302.563 183.391 305.269 180.141 307.974 177.975C308.515 176.892 309.056 176.351 308.515 175.268C308.515 173.643 308.515 173.643 309.597 173.102C310.679 172.56 311.761 172.019 311.761 170.935L313.385 169.852C313.926 169.852 315.549 168.228 315.549 166.603C315.549 165.52 316.631 163.896 317.172 163.896L320.419 160.647L321.501 158.48L322.583 156.314L324.206 154.148L325.288 152.524C324.747 151.982 324.747 151.982 325.829 150.899C327.993 149.275 329.076 148.192 329.617 146.567L330.699 144.401C331.781 143.859 333.404 140.61 332.863 140.61L333.404 138.986L334.486 137.361L336.11 135.195C337.192 134.653 337.733 133.029 338.274 131.946L340.438 129.238L342.061 127.614C342.061 125.448 343.143 121.657 344.767 119.491C345.308 118.408 345.849 117.325 345.308 116.242L345.849 115.159L346.931 113.534L348.013 111.909V110.285L348.554 108.66L349.095 107.577L349.636 105.411L350.718 103.245L352.342 101.079V99.4544C351.259 98.9129 351.259 98.9129 352.342 97.2883L353.424 95.6638V94.0392C353.424 92.4146 353.424 91.3316 354.506 90.2485L355.588 86.9994V84.8333C356.67 83.7503 356.67 80.5011 356.129 79.9596V78.8766C357.211 78.335 357.752 76.1689 356.67 75.6274C355.588 75.6274 355.588 75.0859 356.129 74.5444L356.67 71.8368V66.963L356.129 63.7139L355.047 60.4648V57.7572C355.047 56.1326 354.506 55.5911 353.424 56.1326C352.883 56.6741 352.883 56.6741 352.883 54.508C352.883 52.8834 352.342 52.3419 350.718 50.7174L348.013 48.5513C346.931 48.5513 346.39 48.5513 346.39 47.4682L345.308 45.8436C344.226 45.8436 343.684 45.3021 343.684 44.7606C343.143 44.2191 339.356 42.053 338.815 43.136C338.274 44.2191 336.651 44.2191 333.945 43.6775H330.699L327.993 45.8436C325.288 46.9267 322.583 49.6343 322.583 50.7174L320.96 53.9665L320.419 53.425C320.419 52.3419 319.336 52.8834 318.795 54.508L316.631 57.7572L315.008 59.9232L313.926 60.4648C312.844 60.4648 312.844 61.0063 312.844 63.7139L311.22 66.4215C309.056 68.5876 307.974 70.7537 309.056 70.7537L310.138 71.2952H309.056L306.892 71.8368L305.81 72.3783L305.269 73.4613C305.81 74.0028 305.269 75.0859 304.186 76.1689L302.563 79.4181C302.563 80.5011 302.022 81.0426 301.481 81.0426L300.94 82.6672L299.858 83.7503C298.776 84.2918 297.153 87.5409 297.153 88.624L296.07 89.1655L293.906 92.9562L293.365 95.6638C294.447 96.7468 293.906 97.2883 292.283 96.7468C291.201 96.7468 291.201 97.2883 291.201 98.3714L289.578 100.537C289.037 101.079 288.496 101.621 288.496 103.245L287.413 105.411L284.167 111.909C284.167 113.534 283.626 114.617 283.085 114.076L282.544 115.7C283.085 117.325 282.544 117.866 281.462 119.491L280.379 121.657L279.838 122.74L278.756 125.448L277.674 128.697L276.592 130.863L276.051 132.487L275.51 134.653V136.82C274.428 137.361 272.805 142.235 272.805 143.859L272.263 146.025L271.722 147.108L271.181 148.733L270.64 154.69C271.722 155.773 271.181 156.314 270.099 155.773L269.017 156.314C268.476 156.856 267.935 163.896 268.476 164.979V165.52C267.935 166.062 267.394 167.145 267.394 170.394C267.935 174.185 267.394 175.268 266.853 175.809C265.23 177.434 264.147 180.141 264.147 181.766L263.606 183.932V187.181C264.147 190.43 264.147 195.846 263.065 196.387V197.47L261.442 199.636C260.36 200.719 259.819 201.261 260.36 201.802L259.278 202.344L257.114 202.885L254.408 207.759L252.244 209.384C250.621 209.925 250.08 210.467 250.08 211.55C249.539 212.633 249.539 213.174 247.915 213.174C244.669 213.716 244.128 214.257 242.505 216.965L239.799 220.214L239.258 220.756L237.094 222.922L235.471 224.546C235.471 225.088 235.471 225.629 234.93 225.088C234.389 225.088 231.142 226.712 229.519 228.878L227.355 231.045L223.567 233.752L218.698 235.377L215.992 235.918C214.91 236.46 211.123 234.835 211.123 234.294L210.582 233.211C209.5 233.211 207.335 230.503 207.876 229.42L207.335 227.795V227.254L206.794 225.088V220.214L207.335 218.59L207.876 216.965L208.417 212.633L209.5 208.301L211.664 198.553L212.205 195.846L212.746 194.221L213.287 193.138C212.746 192.596 213.287 192.055 213.828 191.513V186.098L214.369 185.015L215.451 180.683L215.992 176.892V174.726C215.451 173.102 215.992 170.935 217.616 170.394V168.769C217.074 167.686 218.157 163.354 218.698 162.813L219.239 161.188V157.939C220.321 155.773 220.321 155.231 219.239 152.524C218.698 151.441 218.157 149.816 218.698 149.275L218.157 148.192L217.616 145.484C217.616 142.776 216.533 141.152 214.91 141.152L213.828 140.069L211.123 138.986L208.958 138.444C207.876 137.903 204.63 138.444 204.63 138.986L201.925 139.527C199.219 139.527 199.219 139.527 197.596 141.152C197.055 142.235 196.514 142.235 195.973 141.693C195.973 141.152 195.432 141.152 193.809 142.235C192.726 142.776 191.103 143.318 190.562 142.776L187.316 144.401L181.364 148.192L175.953 150.899L174.33 152.524L171.084 154.148L168.378 156.314L167.837 157.397L166.755 158.48C166.214 157.939 162.427 159.563 160.803 161.73C160.262 162.813 158.639 163.354 157.557 163.896C154.852 164.979 154.311 165.52 154.852 166.603L154.311 167.686C153.77 166.603 151.605 167.686 151.605 168.769L151.064 169.311L146.736 173.643C143.489 176.351 142.407 177.434 142.948 177.975H142.407C141.866 177.975 140.784 177.975 140.243 179.058L139.161 181.224H137.537C135.914 181.224 135.914 181.224 134.832 182.307L132.127 184.474C131.586 185.015 131.045 185.015 131.586 186.64C131.586 187.723 131.586 188.264 129.421 188.806C127.798 189.347 126.716 190.43 126.716 190.972C126.716 192.055 125.093 193.679 124.011 193.679L122.929 194.763L120.223 198.553L117.518 202.344L116.977 202.885H115.895C114.813 203.427 113.73 205.051 114.813 205.593C115.895 205.593 115.354 207.218 114.272 207.759C113.189 208.301 112.648 208.842 112.107 208.301C111.566 207.218 109.943 208.301 109.943 209.384C109.943 211.008 108.861 213.174 107.779 213.174L106.697 214.257L105.614 215.882C104.532 215.882 103.991 216.965 103.991 216.965L103.45 218.048L101.286 220.756L99.1216 222.922L98.5806 224.005C98.5806 225.088 94.252 227.795 93.1699 227.254V225.088L94.7931 218.59L96.4163 214.257C97.4984 213.716 97.4984 213.174 96.9573 212.091V210.467C98.5806 210.467 99.6627 208.301 99.6627 205.593L100.204 202.344L100.745 199.636C100.204 198.012 100.204 197.47 101.286 197.47C102.368 196.929 102.368 196.929 101.827 195.846L102.368 194.221L102.909 192.596L103.45 189.889L103.991 189.347L106.156 185.015V183.932C105.614 182.849 105.614 182.307 107.238 180.683C108.32 179.6 108.861 178.517 108.32 177.975L109.402 176.892L110.484 175.809V173.102C110.484 170.935 111.025 170.394 111.566 170.394C112.648 170.935 113.189 170.394 112.648 168.769L114.272 163.896C115.895 161.188 115.895 160.105 115.354 159.022V157.397L115.895 156.856L116.977 155.773L117.518 153.607L118.6 151.441L119.141 149.275L119.682 148.192C120.223 148.192 121.846 143.859 121.846 142.235L122.929 140.069V135.195L124.552 133.029L125.634 129.238L127.257 124.906L127.798 122.198L128.339 120.574L130.504 118.408L132.668 116.242L133.209 114.617V114.076C131.586 114.617 132.127 114.076 133.75 111.368L135.914 107.577C136.455 107.036 136.996 105.953 136.455 105.411L137.537 103.787L138.62 101.621L139.702 99.4544L140.784 97.8299V97.2883L141.325 96.7468L142.948 94.5807L144.03 91.8731L145.112 89.707L145.653 88.624L146.736 86.4579L147.818 83.7503C147.818 82.6672 147.818 82.1257 148.359 82.6672L148.9 82.1257L150.523 81.5842L153.228 81.0426H155.934L159.721 81.5842C161.344 81.5842 161.344 81.5842 161.344 79.9596C161.344 79.4181 161.344 78.8766 162.427 78.8766C165.132 79.9596 166.755 79.9596 167.837 79.4181C168.919 78.335 171.084 78.335 171.084 78.8766H173.789L177.035 78.335H177.577C177.577 77.252 177.577 77.252 178.659 77.7935C179.2 78.8766 180.823 78.335 180.823 77.252L184.069 75.6274L188.398 74.5444H191.103C191.644 75.0859 193.268 74.5444 193.268 74.0028L194.35 73.4613L196.514 72.9198L200.301 71.8368L203.548 71.2952L204.089 70.7537L205.171 70.2122L208.417 68.5876C210.041 68.5876 210.582 68.0461 210.582 66.4215C210.582 65.3385 210.582 64.797 211.664 64.797C212.746 64.797 214.369 63.1724 213.828 62.0893L214.91 60.4648C215.451 59.9232 214.91 57.7572 213.287 57.7572L212.205 55.5911C212.205 53.425 212.205 52.8834 210.582 51.2589C208.958 49.6343 208.417 48.5513 209.5 48.0097L210.041 46.9267H206.253C205.171 46.9267 204.63 46.9267 205.171 45.8436C205.171 44.7606 203.548 43.6775 202.466 44.2191L200.301 44.7606L193.809 45.8436L192.726 45.3021H189.48L186.234 48.5513L185.693 49.0928L184.069 49.6343H181.905L179.741 50.1758H179.2L177.035 50.7174L171.625 52.8834C168.378 53.9665 166.755 53.9665 166.755 52.8834L167.296 52.3419L168.378 51.2589C168.378 49.0928 170.002 46.3852 170.543 46.3852L172.166 42.5945L172.707 40.4284C173.789 39.3454 175.953 33.9301 175.953 32.8471L174.871 31.2225C173.789 30.681 173.248 29.0564 174.33 28.5149C174.871 28.5149 175.412 27.9734 175.412 26.8903C175.412 25.8073 174.871 25.2658 173.789 25.2658L172.707 24.1827L171.084 23.6412C170.002 24.1827 169.46 23.6412 168.919 23.0997L167.837 22.0166C166.755 22.0166 164.591 23.6412 164.591 24.7242L164.05 25.2658L162.427 25.8073L160.262 29.0564L158.098 31.764L155.934 34.4717C154.311 36.0962 153.77 37.1793 153.77 38.2623L153.228 39.8869L152.687 40.4284V41.5115L151.605 43.6775L149.982 46.3852L148.359 48.5513L147.818 50.1758L146.736 51.8004L146.195 52.3419C145.654 52.3419 145.112 52.8834 145.112 53.9665L143.489 57.2156L141.866 58.8402C141.866 59.3817 139.702 62.0893 138.079 62.6309L134.832 64.2554C133.209 65.3385 132.668 65.3385 130.504 65.3385C128.88 64.7969 128.339 64.797 127.798 65.88L126.716 66.963C126.175 66.4215 126.175 66.963 126.175 68.5876L125.634 69.6707L124.552 69.1291C124.552 67.5046 122.929 67.5046 120.764 69.1291C118.6 70.7537 118.059 70.7537 117.518 70.2122H115.354C113.73 69.6707 111.566 70.7537 111.025 72.3783C111.025 73.4613 109.943 74.0028 109.402 72.9198L107.779 72.3783H106.156C105.614 72.3783 105.073 72.3783 105.073 73.4613C105.073 74.5444 103.991 75.0859 102.909 75.0859C101.827 74.0028 100.204 74.0028 100.204 74.5444L99.6627 75.0859C98.5806 75.0859 98.5806 76.1689 99.6627 76.1689C100.745 76.7105 100.204 77.7935 99.1216 78.8766C98.5805 79.4181 98.5806 79.4181 98.5806 78.335C99.1216 76.7105 99.1216 76.7105 98.0395 77.252L96.4163 78.8766C96.4163 79.9596 95.3341 80.5011 95.3341 79.4181H94.7931C94.7931 80.5011 92.0877 79.9596 92.0877 78.8766L93.1699 78.335C94.7931 78.8766 94.252 78.335 92.6288 77.252C91.0056 76.7105 91.0056 76.7105 91.0056 79.4181C90.4645 82.6672 91.0056 82.6672 92.0877 82.1257H93.7109C94.252 83.2087 94.7931 83.2087 95.3341 83.2087H96.4163L105.614 84.8333L110.484 85.3748L114.813 84.8333C115.354 83.7503 116.436 83.7503 116.977 84.2918L118.6 84.8333C120.223 85.3748 120.223 85.9164 117.518 89.1655L115.354 92.4146L113.73 94.0392L112.107 95.6638L110.484 97.8299C109.402 98.3714 108.861 99.4544 109.402 99.4544L108.32 100.537L107.238 102.162L106.156 103.787L104.532 104.87L103.991 105.953L101.827 108.66L100.204 111.368L98.5806 113.534L97.4984 115.7L95.3341 118.408L93.7109 120.032L90.4645 124.365C89.3824 125.989 88.3003 127.072 88.8413 127.614L87.2181 129.238L86.136 131.404C86.6771 131.946 86.136 131.946 85.0538 132.487C84.5128 132.487 83.9717 133.029 84.5128 133.57V135.195H85.5949L86.136 136.278C86.136 137.903 86.136 137.903 85.0538 136.82C83.9717 135.736 83.4306 135.736 82.3485 136.82C81.2664 136.82 80.7253 137.903 80.7253 138.444L79.6432 139.527L79.1021 141.152C79.6432 141.693 79.1021 142.235 78.561 142.776L77.4789 144.401L76.3968 146.025V147.108C76.9378 147.65 76.9378 147.65 75.8557 148.192H74.2325L72.6093 150.358C70.9861 151.982 70.9861 153.065 70.9861 154.69C71.5271 156.314 71.5271 156.314 70.445 156.314C69.3629 156.314 68.2807 156.856 67.1986 158.48L65.5754 160.105C64.4932 160.105 63.4111 162.271 63.4111 163.896C63.4111 164.979 61.2468 167.145 60.1647 167.145C59.6236 167.145 58.0004 170.935 58.0004 172.56L56.9183 174.185L53.1308 177.434L52.5898 179.058L52.0487 181.224V181.766L51.5076 181.224C51.5076 180.141 50.4255 180.683 49.3433 182.849C48.2612 184.474 47.7201 185.557 48.2612 186.64V187.723L47.7201 187.181H47.1791L46.0969 188.806L45.5559 189.347C44.4737 189.347 43.9327 191.513 44.4737 192.055V192.596C42.8505 192.596 40.1452 195.304 40.1452 196.929L39.063 198.553L37.4398 200.719C37.4398 201.802 36.3577 202.344 35.8166 202.885C34.7345 203.427 29.8649 207.759 29.8649 208.842L28.2417 210.467L27.1595 213.174C27.7006 214.257 27.1595 214.257 26.6185 214.799L25.5363 215.882C25.5363 216.965 22.831 218.048 21.7489 218.048H21.2078L20.6667 219.131L19.5846 220.756C20.1257 221.297 19.5846 221.297 19.0435 221.839L16.8792 224.005C16.8792 225.088 15.7971 225.629 15.256 226.171L13.6328 227.254C14.715 228.337 13.0918 231.045 12.0096 231.045L11.4686 232.128C11.4686 233.752 10.3864 234.835 9.84536 233.752H9.30429L8.22216 234.835L7.14002 235.377L7.68109 235.918L8.22216 237.001V238.084C8.76322 238.626 8.22216 238.626 7.14002 238.626C4.97575 238.626 4.43468 239.167 3.89361 241.333C3.35254 242.417 3.35254 242.958 4.43468 242.958L5.51681 243.5L4.43468 245.124L2.81147 245.666C1.72934 244.583 0.6472 245.124 0.106132 246.207C-0.434936 247.832 1.18827 250.539 2.81147 250.539L4.43468 249.456L5.51681 248.915L7.14002 248.373L8.76322 247.29L10.3864 245.666L13.6328 243.5L18.5025 239.709L22.2899 235.918L24.4542 233.211C24.4542 231.586 24.9953 231.045 26.0774 231.045L28.2417 229.962L29.8649 228.878H30.406L31.4881 227.254L32.5702 225.629L33.6524 225.088L36.8988 223.463L39.063 221.297C40.1452 221.297 41.7684 219.131 42.3095 217.506C42.3095 215.882 42.3095 215.882 42.8505 216.423C43.9327 217.506 45.0148 216.965 45.5559 215.34L46.638 214.257L48.8023 213.174L50.9665 211.55C51.5076 212.091 51.5076 211.55 51.5076 211.008C51.5076 209.925 54.754 206.676 55.2951 207.218L56.3772 206.676L58.0004 201.261L61.2468 199.636L65.5754 197.47L67.7397 195.304C68.8218 194.763 68.8218 194.221 68.8218 193.138L69.3629 189.889L70.445 188.806C70.445 190.43 70.9861 189.889 72.0682 188.264C72.6093 187.181 73.1503 186.64 74.2325 186.64C75.3146 186.64 75.8557 186.098 75.8557 184.474C76.3968 182.849 77.4789 182.307 79.6432 181.766L80.7253 180.141L82.3485 176.892L83.9717 174.726V174.185C83.9717 175.268 85.5949 174.726 85.5949 174.185L87.2181 172.019C89.9235 169.852 90.4645 170.935 88.3003 173.102L87.2181 175.268V177.434L85.5949 180.141L84.5128 182.849V185.557L82.8896 187.723C81.8074 188.264 81.8074 188.806 81.8074 190.972C82.3485 193.138 82.3485 194.221 80.7253 196.929L79.1021 201.802L78.02 204.51C76.3968 205.593 75.8557 206.676 76.9378 206.676L76.3968 212.633L75.3146 214.257C74.7736 214.257 73.1503 218.59 73.1503 220.756V224.546L72.6093 232.128C72.2506 236.84 71.7091 241.537 70.9861 246.207C70.445 246.749 69.9039 247.29 70.445 248.915V252.164C69.9039 253.247 70.445 255.955 71.5271 256.496V258.121C70.445 258.121 69.9039 259.745 70.445 260.287L71.5271 260.828L73.1503 262.453L74.2325 264.077L74.7735 265.702C74.2325 266.785 74.7735 267.327 76.9378 267.868C80.1842 268.951 81.2664 269.493 81.2664 268.41C81.2664 267.327 81.2664 267.327 82.8896 267.868C84.5128 268.951 85.0538 268.41 83.9717 266.785H84.5128C85.5949 267.327 85.5949 267.327 87.2181 265.702C88.3003 264.619 88.8413 263.536 88.3003 262.994C87.7592 262.453 87.7592 261.911 88.8413 262.453L89.3824 262.994L90.4645 263.536L92.0877 261.911L94.252 257.579C94.7931 255.413 95.8752 253.789 96.9573 253.247L98.0395 252.164L99.1216 251.081L99.6627 249.998C99.1216 248.373 99.6627 247.29 100.745 247.832L101.827 246.749C101.827 245.666 102.368 245.124 102.909 245.124L103.45 244.583L103.991 243.5L106.697 239.709L109.402 235.918L109.943 235.377L111.566 233.752C111.566 232.669 112.648 231.586 112.648 232.128C113.189 232.128 115.354 229.962 116.436 227.254L118.6 225.088L119.682 223.463C119.682 222.38 119.682 222.38 120.764 222.38C121.846 222.38 122.388 221.839 122.388 220.756L124.011 218.59L127.257 215.34L128.339 214.799L128.88 213.174V212.091C129.963 212.091 131.045 212.633 131.045 213.716L130.504 214.257L129.963 214.799L129.421 215.882L128.339 220.214L127.798 225.629V227.254C128.339 227.795 128.88 228.878 128.339 231.586L128.88 235.918V239.167L129.421 240.25L130.504 242.417L131.045 244.583C130.504 246.207 131.045 247.29 134.291 252.164C135.914 254.872 136.996 255.413 138.079 255.413C138.62 255.413 140.243 255.955 141.325 257.579L144.03 259.204L144.571 259.745C144.571 260.287 145.112 260.828 146.195 260.287L148.359 260.828L153.228 262.453C157.016 262.994 157.557 262.994 158.639 261.911H160.803C161.886 262.994 162.427 262.994 164.05 261.911L165.673 260.287C165.673 259.745 166.755 259.204 168.919 259.204L171.625 257.579L177.035 252.164C177.577 251.081 178.118 251.081 179.2 251.622C180.823 251.622 180.823 251.622 181.364 249.998C181.364 248.915 181.905 248.373 182.987 247.832C184.069 247.832 185.151 247.29 185.693 246.207C186.234 245.666 186.775 244.583 187.857 244.583L188.939 242.958L190.021 241.333C191.103 240.792 191.103 240.792 191.644 241.875L192.726 244.041L194.891 245.124L197.055 247.832C197.055 248.915 198.137 249.998 198.678 249.998L199.76 251.081C200.301 252.164 201.925 252.164 203.007 251.622H204.089L205.712 254.33C207.335 255.955 207.876 255.955 208.958 255.955C210.041 255.413 210.582 255.955 210.582 256.496L213.828 257.038C215.992 256.496 217.616 257.038 218.157 257.579L220.862 257.038L224.108 255.955L225.191 255.413H226.273L228.978 254.33L231.683 253.247L232.224 252.705C232.224 251.622 233.307 249.998 234.389 249.998L236.553 248.915L238.717 247.29L240.34 246.207C240.882 245.666 241.423 245.124 241.964 245.666L243.046 244.583L245.751 242.417L247.374 240.25L247.915 239.709C248.998 240.25 249.539 239.709 251.162 238.084L253.326 235.918H254.408V235.377C253.867 234.294 254.408 233.211 256.031 233.211L257.655 232.128L259.819 230.503L261.983 229.42L263.065 226.171C264.689 226.171 266.853 227.795 266.853 228.337V229.42L267.394 232.128C267.394 233.211 267.935 233.752 268.476 233.211L269.017 234.835C269.017 236.46 269.017 237.001 270.099 237.001L270.64 237.543L272.805 239.709L274.428 242.417C273.887 242.958 274.428 242.958 276.051 242.958H277.674L276.592 244.583C276.051 245.666 276.051 245.666 277.674 246.207L279.297 247.832L282.003 249.998L283.626 251.081C285.249 252.164 286.872 252.705 287.413 252.164C287.413 251.622 287.954 251.622 289.578 252.705L293.365 253.789L296.07 254.33C296.07 255.413 297.153 254.872 297.153 253.789H297.694C298.235 254.872 300.399 254.872 302.022 253.789L305.81 253.247C310.679 253.247 311.22 253.247 311.761 252.164L313.926 251.622L316.09 250.539L319.877 248.915C321.501 248.915 322.583 248.373 322.583 247.832L324.747 246.749L328.535 244.583L332.322 241.875L334.486 239.709C334.486 238.626 335.027 238.084 336.11 238.626L337.733 238.084L339.897 237.001L343.143 235.377C343.684 234.294 344.226 234.294 345.308 234.294C346.39 234.835 348.013 233.752 347.472 233.211C346.931 232.669 351.8 227.254 352.883 227.254L353.424 226.712C353.424 225.088 353.424 224.546 354.506 224.546H355.588C356.67 224.005 359.375 224.005 360.458 225.088L362.081 227.795L364.245 231.045C365.868 231.586 366.409 232.669 365.868 233.752C365.868 234.835 370.197 239.167 371.279 239.167L372.361 240.25C372.902 241.875 375.066 242.958 375.608 242.417L376.69 242.958C377.772 244.041 379.936 244.583 380.477 243.5H381.018L382.641 244.041C384.806 244.041 385.888 244.583 385.888 245.666H386.97L390.757 246.207L394.004 246.749C395.086 245.666 395.627 246.207 395.086 247.29C394.004 248.373 396.709 248.915 399.414 247.832H402.661C404.825 248.915 409.154 247.832 408.613 246.749C408.613 245.666 409.154 245.666 410.236 246.207C410.777 246.749 411.859 247.29 414.564 247.29C418.893 246.749 419.434 246.749 419.434 245.124C419.434 243.5 420.516 243.5 422.139 244.583L423.221 246.207L424.845 244.583L427.009 242.958L428.091 244.041C429.173 245.124 429.173 245.124 429.714 244.583C429.714 244.041 430.255 243.5 430.796 244.041L431.338 243.5L432.42 242.958C433.502 242.958 433.502 242.958 433.502 241.875V240.792L434.584 239.709H435.666C436.748 241.333 437.289 240.792 438.912 239.709L441.618 238.626C442.159 239.167 442.7 238.626 442.7 238.084H443.241L444.323 237.001C444.864 235.918 444.864 235.918 445.946 236.46C447.57 237.001 451.357 237.001 452.439 235.377L454.603 234.294L456.227 233.211C457.309 231.586 458.391 230.503 459.473 230.503L461.096 229.42C462.178 228.337 464.884 227.795 464.884 228.878C464.884 229.42 464.884 229.962 465.966 229.962L469.753 233.211L470.836 234.835C471.918 235.918 472.459 235.918 474.082 235.918L477.869 236.46L480.034 237.543C480.575 237.001 481.116 237.543 480.575 238.084C480.575 239.167 482.198 239.709 484.362 239.709H485.985L487.068 240.25L490.314 240.792L493.019 240.25C494.101 238.626 496.807 239.167 497.348 240.25C497.889 241.333 498.971 241.333 502.217 241.875L508.169 241.333L511.416 240.792H513.58C513.58 241.875 514.662 241.333 516.285 240.25C517.367 239.167 517.908 238.626 518.991 239.167L521.696 238.626L526.024 237.543L529.812 237.001L531.976 236.46L533.599 235.377L534.682 234.294L536.305 233.211L538.469 232.128C540.092 232.128 541.174 231.586 542.257 230.503C542.798 229.42 544.421 228.878 544.962 228.878C546.585 228.878 549.831 227.254 550.373 225.629L552.537 225.088L554.701 224.546C555.783 222.922 557.406 221.297 560.112 219.673L562.817 216.965C562.817 215.882 563.358 215.34 563.899 215.34L566.063 214.257L568.228 213.716L569.851 212.633L574.721 206.676C578.508 203.427 580.131 200.719 580.672 199.095C582.296 195.846 582.837 194.763 584.46 194.763L585.001 193.679L584.46 192.055C584.46 190.972 585.001 190.972 586.083 190.43C587.165 189.889 587.706 189.347 587.706 187.723V185.557L588.788 182.307L590.412 179.058L590.953 177.975L591.494 175.809L592.576 171.477C593.658 169.852 593.658 169.311 593.658 166.062C593.117 163.354 593.117 162.813 594.199 162.271V155.773C593.658 155.231 594.199 154.148 594.74 153.065V148.192C595.822 148.192 596.363 145.484 595.281 145.484C594.199 144.942 595.281 143.859 596.904 143.859L597.987 143.318C597.987 142.776 600.151 142.776 601.233 143.859H604.479L606.644 143.318H608.808L614.219 142.235C618.006 141.693 619.088 141.152 619.629 140.069C619.629 139.527 620.17 138.986 621.252 138.986L622.876 138.444H624.499L626.663 137.903H628.286V140.069L627.204 141.693L626.122 143.318C625.04 143.859 624.499 144.942 624.499 146.025L623.958 147.108L621.794 149.275C620.17 150.899 619.629 151.441 620.711 151.982V153.065L619.629 154.69L619.088 155.773C617.465 155.231 616.924 155.773 616.924 157.397C616.924 157.939 616.924 158.48 616.383 157.939L615.842 158.48L616.383 159.022L616.924 159.564L616.383 160.105C615.301 160.105 613.136 162.813 613.136 164.437L612.595 165.52L609.89 171.477L609.349 172.56L608.808 173.643L608.267 175.809L607.185 178.517L606.644 180.141L606.103 180.683L605.562 181.224V182.307L605.02 185.015C603.938 186.64 603.938 187.181 604.479 188.264V192.055C603.397 192.596 603.397 199.095 603.938 199.636V201.261C605.02 202.344 605.02 202.344 605.02 204.51L606.103 205.593C607.185 205.593 607.185 205.593 606.644 206.134C606.103 207.218 606.103 207.759 607.185 209.384L608.267 213.174C608.267 213.716 608.808 214.799 609.89 214.799C610.972 215.34 611.513 215.882 611.513 216.965C611.513 218.59 613.136 221.297 614.219 221.297C615.301 221.297 616.924 222.922 616.924 224.546C616.924 225.629 617.465 225.629 618.006 225.629C619.088 225.629 619.629 225.629 620.17 226.712L621.794 227.254C622.876 227.254 623.417 227.254 623.958 228.337C623.958 229.42 627.745 231.045 629.91 231.045L631.533 232.128L633.697 233.211H636.402L640.19 234.294L643.977 234.835C646.142 235.918 655.881 236.46 658.045 235.377H661.833C662.915 234.294 667.784 232.128 669.949 232.128L672.113 230.503H674.277C675.359 228.878 679.147 229.962 679.688 231.586L680.77 232.669L683.475 234.294C684.557 235.377 684.557 235.377 685.64 234.835C687.263 234.294 687.263 234.294 687.804 235.918C687.804 237.543 690.509 238.626 694.297 239.167L697.543 239.709H703.495L706.741 239.167C706.741 238.084 707.282 237.543 708.906 237.543L710.529 237.001H711.611L713.775 235.918L715.939 234.835L717.563 233.211L718.645 232.669L719.727 232.128L721.891 231.586L724.055 229.962L725.679 228.878L727.302 227.254L728.384 225.629L728.925 225.088C728.384 224.546 728.925 224.005 730.548 224.005C732.171 223.463 732.713 222.922 732.713 221.297C733.254 220.756 733.795 219.673 734.877 219.673L737.041 219.131C737.582 219.673 740.829 216.965 740.829 215.882L742.452 214.799L745.157 212.633L746.78 211.008L750.568 207.759L757.602 201.802L758.143 200.719L759.225 199.636C760.307 199.095 765.718 194.221 765.718 193.138L766.8 192.055L767.882 190.972C767.341 190.43 767.882 190.43 768.423 190.43L768.964 189.889V189.347L770.046 188.806L773.834 184.474C777.621 181.224 777.621 180.683 778.703 181.224V185.557L777.621 189.889L777.08 191.513L778.162 194.763V202.344L777.621 205.593V206.134L778.162 207.759L777.621 210.467C777.621 212.633 778.162 212.633 779.244 213.174C781.409 213.716 781.409 215.34 779.785 214.799C777.621 214.257 777.621 214.799 779.244 215.882L781.409 218.59C781.409 219.673 781.95 219.673 781.95 219.131C781.95 218.048 781.95 218.048 783.573 218.59L784.655 220.756L785.196 222.922C785.737 222.922 786.278 223.463 786.278 224.546C786.819 225.629 788.984 226.712 792.23 226.712C794.935 227.254 795.476 227.254 796.018 228.337C797.1 229.42 800.887 229.962 800.887 228.337C800.887 227.254 802.51 227.795 802.51 229.42C802.51 229.961 803.051 230.503 804.134 230.503L805.216 229.962H806.298L806.839 230.503L807.38 228.337C807.38 226.171 807.921 225.629 808.462 227.254L809.544 228.878C811.167 228.878 817.66 227.254 818.742 226.171L821.989 224.546C823.071 224.546 823.612 224.005 823.612 223.463C823.612 221.839 826.317 219.131 827.941 219.673C829.023 219.673 829.023 219.131 829.564 217.506C830.105 214.799 832.269 213.174 833.892 213.174C835.516 213.174 836.057 213.174 836.598 212.091L840.926 207.759L843.09 205.051L845.796 200.178L846.878 199.095L847.419 197.47C848.501 196.929 850.124 194.221 850.124 193.679C849.583 192.596 850.665 190.972 851.748 190.972L852.83 190.43L853.371 188.806L854.453 186.098L854.994 185.015L855.535 183.932L857.699 180.683L859.864 176.892L860.405 173.643L861.487 171.477L862.028 170.935L863.11 168.228L864.192 165.52L865.815 161.188L867.438 156.856L867.98 155.773C869.603 155.773 871.767 151.982 871.767 148.733C871.767 147.108 871.767 146.025 872.849 145.484L873.931 143.859V143.318L874.472 141.693L876.096 137.903L877.178 134.112L878.26 132.487L880.424 130.321L882.588 126.531L883.671 123.823C884.212 122.198 884.212 122.198 886.376 121.657L888.54 120.574L889.622 122.198C891.246 124.364 891.246 124.906 890.163 124.906C889.081 125.448 889.081 126.531 890.704 129.238V130.863C889.622 131.404 890.163 133.57 891.246 133.57C892.328 134.112 892.328 134.112 892.869 141.693L894.492 144.401C895.574 145.484 895.574 146.025 895.033 148.192L894.492 151.441L893.951 151.982C895.033 153.065 895.033 155.773 893.951 156.856C893.41 157.397 893.41 157.397 894.492 158.48C895.033 159.022 895.574 159.564 895.033 162.271L894.492 166.062V167.145L895.033 170.935L895.574 174.726V185.557L892.328 187.723C890.163 188.264 889.081 188.806 889.081 189.889L887.458 190.43L886.376 190.972L884.212 192.596L881.506 193.679L879.883 195.304L878.801 196.387C878.801 196.929 876.096 198.012 875.555 197.47C875.013 197.47 873.39 198.553 873.39 199.636L872.849 200.719L868.521 205.051C867.98 206.134 867.439 207.218 867.98 208.301C867.98 210.467 867.439 210.467 866.897 211.008C864.192 212.091 862.569 214.257 864.733 214.257V214.799C864.192 215.34 865.274 219.673 865.815 220.214V225.088L866.356 229.42L866.897 231.045C867.439 231.045 867.98 231.045 867.98 232.128C869.062 233.752 869.603 234.294 871.226 234.294L872.308 235.377V236.46L873.39 237.001C873.931 237.001 875.013 237.001 875.555 238.626C876.096 240.25 876.637 240.792 878.26 240.792L880.965 241.333C881.506 241.875 882.588 242.417 883.671 241.875L891.246 242.417C892.869 242.417 893.41 242.417 894.492 241.333C895.574 240.25 897.738 239.167 899.362 239.167C900.985 238.626 904.772 235.918 905.313 234.835C905.854 233.752 906.395 233.752 906.937 234.294C909.101 234.835 909.642 234.835 909.642 233.211C910.183 231.045 911.265 229.962 912.888 229.962C913.97 229.962 914.511 229.42 914.511 228.337L915.053 227.254H915.594C916.135 226.171 916.676 225.629 916.135 225.088L916.676 224.546C917.758 225.088 919.381 221.297 918.84 219.131L919.381 217.506C920.463 217.506 921.004 214.257 919.922 212.633V206.134L920.463 205.051L921.545 203.968L922.086 202.885C921.545 201.802 922.086 201.261 924.792 200.178L929.661 198.553C930.202 199.095 931.826 198.553 933.449 198.012L936.695 196.929C937.236 197.47 938.859 196.929 940.483 196.387C941.565 195.846 943.188 195.304 943.729 195.846L944.811 195.304C945.352 194.763 945.893 194.221 946.976 194.763C949.14 194.763 949.14 194.762 949.14 193.679V192.596L949.681 193.679C950.222 194.762 950.222 194.762 952.386 194.221L954.551 193.679L955.633 192.596C955.633 190.972 956.174 190.972 957.797 191.513L961.043 190.972L964.831 189.889C965.913 189.889 966.454 189.347 966.454 188.806L968.077 188.264C968.618 188.806 971.324 187.723 971.324 187.181C971.324 186.098 973.488 184.474 976.193 183.391L979.44 182.849L983.227 181.224L987.556 179.6L989.72 177.434L991.884 175.268L997.295 171.477C997.295 170.394 1000 167.686 1001.08 167.686C1001.62 167.686 1002.71 163.354 1002.16 161.73L1002.71 159.564C1003.79 159.022 1004.33 156.856 1003.79 154.69L1002.71 153.607L1001.62 152.524C1001.62 151.441 1001.08 150.899 999.459 150.899L997.295 149.275C997.295 148.733 996.754 148.192 995.672 148.192L993.507 146.567H992.425L988.638 147.108C982.686 147.108 982.686 147.108 982.145 148.733C982.145 149.816 982.145 150.358 981.063 149.816C979.44 149.816 976.193 151.441 974.57 154.148C973.488 155.773 972.947 155.773 970.783 155.773L969.159 157.397L967.536 159.022C966.454 159.022 964.29 161.188 964.29 162.271C964.29 163.354 964.29 163.354 963.208 163.354H962.125L961.584 163.896V162.813L961.043 163.354C960.502 163.896 959.961 164.437 958.338 164.437L956.715 164.979C956.715 165.52 956.174 166.062 955.633 165.52L952.927 166.603L950.763 168.228L950.222 169.311H949.681C949.14 167.686 946.435 167.686 947.517 169.311C947.517 169.852 946.976 170.394 944.27 170.935L938.318 172.56L928.579 174.185L925.333 175.268L922.627 175.809H920.463L919.922 173.643L919.381 170.394V167.145L918.299 162.813L917.758 160.105V157.939C916.676 156.856 916.676 156.856 917.758 155.231C918.84 154.69 918.84 154.148 918.84 152.524L917.217 150.899L916.676 148.192V145.484C915.594 144.401 915.594 143.859 916.135 142.235C917.217 140.61 917.217 140.069 916.676 138.444L915.594 134.653L913.97 132.487C912.888 132.487 912.347 131.946 913.429 130.863V130.321L912.888 127.614L912.347 125.989C911.806 125.989 911.265 125.448 911.265 123.823V121.115L910.724 120.574C911.265 120.032 910.183 116.783 909.642 116.783L909.101 115.159C909.642 113.534 909.642 112.993 908.56 112.451C908.019 111.368 907.478 110.826 908.019 110.285L906.937 107.036L902.067 102.162L901.526 101.621C900.985 101.079 900.444 100.537 899.903 101.079L899.362 100.537V98.9129L898.279 97.8299L897.197 97.2883C896.115 96.7468 895.033 96.2053 892.869 96.7468L890.163 96.2053L889.622 95.6638H886.917L884.753 96.7468L880.965 98.3714L878.26 99.4544L876.637 100.537C877.178 101.079 875.013 102.704 873.931 102.704L871.767 104.328L870.685 105.953L869.062 107.036L866.897 110.285C865.815 110.826 865.274 112.451 865.274 112.993L862.569 116.783L860.405 121.657L859.864 123.823C858.781 123.823 855.535 127.614 854.453 129.238C853.912 130.863 853.912 130.863 854.994 131.946C855.535 133.029 855.535 133.029 853.912 135.195L851.748 137.903L850.665 139.527L849.583 141.152C849.583 142.776 848.501 144.401 847.96 144.401C847.419 143.859 846.337 146.025 846.878 148.192C846.878 149.816 845.255 153.065 844.173 153.607L843.632 154.69L843.09 156.314L842.008 158.48L840.926 161.188L840.385 162.813L838.762 166.062L837.139 167.686L835.516 169.852L834.974 172.56L833.892 175.809L832.81 176.351H831.728L830.646 178.517L829.564 181.224C826.858 183.391 825.776 184.474 825.776 185.557L824.153 188.264L821.448 190.972C821.448 192.055 820.366 192.596 819.824 193.138L818.742 193.679L817.66 194.221V195.846L816.037 196.929L813.332 199.095C812.25 200.719 810.626 201.261 810.085 201.261L807.38 201.802C805.757 202.344 805.757 202.344 805.216 200.719L804.675 192.596L805.757 187.181L806.298 185.557C805.216 183.391 805.216 181.224 806.298 180.141L807.38 175.809L807.921 172.56V169.852C806.839 167.145 806.839 167.145 807.921 166.062C810.626 163.354 810.626 162.813 810.085 162.271L811.167 160.647L812.25 159.564V159.022L812.791 157.939C811.708 157.397 811.708 152.524 812.791 152.524L813.332 150.358L813.873 148.733C814.414 148.192 813.873 146.025 813.332 146.025L812.791 144.942C812.791 143.859 813.332 143.318 813.873 143.318C814.955 143.318 814.955 143.318 814.414 142.776C813.873 141.693 813.873 140.61 814.955 140.61L816.578 138.444V135.736C815.496 134.653 815.496 134.653 816.037 132.487C818.742 127.072 819.283 123.281 818.742 117.866V114.617C820.366 111.909 820.366 110.826 820.366 109.202V107.577C821.448 107.036 820.907 103.245 820.366 103.245L819.824 99.4544V95.1222L820.366 94.0392L820.907 92.9562C821.523 89.8637 822.245 86.7933 823.071 83.7503L824.694 75.0859L824.153 74.0028V73.4613C825.235 74.0028 826.317 71.8368 825.776 70.2122L825.235 65.88L825.776 65.3385C825.235 63.7139 825.776 62.6309 827.941 62.0893L829.564 61.0063L830.646 61.5478C831.728 62.6309 831.728 62.6309 832.81 62.0893C834.433 61.0063 836.057 61.0063 838.221 62.0893H840.385C841.467 61.5478 842.008 61.5478 843.09 62.6309L847.419 63.1724C850.124 62.6309 851.206 62.6309 851.748 63.7139C852.83 64.2554 852.83 64.2554 853.371 63.1724C854.453 62.0893 855.535 61.5478 856.076 62.6309L858.781 63.1724H861.487L864.733 63.7139L867.98 64.2554H879.342C882.047 64.2554 882.588 64.2554 883.671 63.1724C884.753 62.0893 885.835 62.0893 887.458 62.0893H891.787C895.033 62.6309 895.574 62.0893 896.115 61.5478C896.656 60.4648 896.656 60.4648 897.738 61.0063L898.821 61.5478H900.985C900.985 61.0063 901.526 61.0063 902.608 62.0893H904.772L908.019 61.5478L910.183 60.4648L911.806 59.3817L913.429 57.2156V55.0495C913.97 53.425 913.97 52.8834 912.888 52.3419V51.2589L911.265 49.0928C909.642 47.4682 909.101 46.3852 909.101 45.3021C909.101 43.6775 909.101 43.136 907.478 42.5945L904.231 41.5115L902.608 40.4284C902.067 38.8038 899.903 37.7208 898.279 38.2623H895.033C893.41 37.1793 891.787 37.1793 890.704 38.2623H888.54C889.081 37.7208 883.129 37.1793 880.965 38.2623L878.801 37.7208C877.719 36.0962 875.555 36.0962 873.931 36.6377C872.308 37.1793 872.308 37.1793 871.226 36.0962H870.144C870.685 37.1793 868.521 38.2623 867.98 37.1793C867.439 36.6377 864.192 37.1793 864.192 37.7208L860.946 38.2623H854.994C850.493 37.5644 845.899 37.7483 841.467 38.8038L838.762 39.3454L836.057 39.8869H833.892C831.728 40.4284 831.187 40.4284 832.269 38.8038L832.81 36.0962L833.351 35.0132L833.892 30.681L834.433 25.8073L835.516 22.5581L836.057 19.8505L836.598 18.226V9.56159L836.057 6.31246L834.974 4.14636L833.351 3.06332L832.269 2.52179V1.98027C831.728 1.43875 830.646 0.897225 829.564 1.43875L825.776 0.355702C825.235 -0.185821 824.694 -0.185821 824.153 0.897225ZM791.689 45.8436L791.148 46.3852L790.607 45.8436V45.3021L791.689 45.8436ZM442.159 53.9665C442.159 55.0495 442.7 57.7572 443.782 59.3817V61.0063L443.241 64.2554C442.7 68.0461 442.159 69.6707 441.618 69.6707V70.7537L441.077 72.3783C440.536 72.3783 439.995 72.9198 440.536 73.4613L439.995 75.0859V75.6274L439.454 76.1689V77.7935C440.536 78.335 439.995 79.4181 438.912 79.4181L437.83 80.5011L436.207 84.8333L434.584 88.624L433.502 89.1655L432.961 90.2485C433.502 90.7901 432.42 92.4146 431.879 94.0392L430.255 98.3714C430.255 100.537 429.173 103.245 428.091 103.245L427.009 105.411L426.468 107.577L425.386 109.202L424.845 109.743L423.221 111.909L421.057 114.076C419.975 114.076 418.893 117.866 419.434 118.949V120.032L417.27 123.281L416.729 124.365L416.188 125.448L415.105 126.531L414.023 127.614C414.023 129.238 414.023 129.78 412.4 130.321L410.777 132.487L410.236 133.029C409.154 133.029 405.907 136.82 404.825 138.444C404.825 139.527 404.284 140.069 403.743 140.069L403.202 142.235C403.743 144.401 403.202 144.401 402.12 144.942C400.497 144.942 398.332 147.65 399.414 148.192V148.733H398.332C397.791 147.65 395.086 151.441 395.086 152.524C395.627 153.065 395.086 153.607 394.545 153.607L393.463 154.148C394.004 154.69 392.381 156.314 391.298 156.314C390.757 156.314 388.593 158.48 388.593 159.564L386.429 161.73C385.347 162.813 384.806 163.354 384.806 164.437C385.347 165.52 384.806 165.52 383.724 165.52L381.018 166.062C379.395 167.145 379.395 165.52 380.477 163.896C381.559 162.813 382.1 161.73 381.559 161.188L381.018 157.939C381.559 155.773 381.559 155.231 382.641 154.148C383.724 153.607 383.724 153.065 383.182 151.441C383.182 150.358 383.182 149.275 384.265 148.192L385.888 144.942L386.429 141.152L387.511 138.444L388.593 135.736C389.675 134.112 390.216 133.029 389.134 133.029L389.675 130.321C391.298 127.072 391.298 125.448 390.757 124.365V123.281L391.298 122.74L392.922 121.657L394.545 118.949L395.086 117.866L395.627 116.783L396.168 115.7C396.709 115.7 398.332 112.993 397.791 111.909L398.873 110.826L399.414 109.202L400.497 107.577L401.579 105.411L402.661 102.704L403.743 100.537C403.743 98.9129 405.366 96.2053 406.448 96.2053L408.613 92.4146V90.7901L409.154 88.0825C409.154 86.4579 410.236 84.2918 411.859 84.2918L414.564 79.9596L416.188 77.252L416.729 75.0859H417.27C418.352 75.6274 418.352 75.0859 418.893 74.0028L420.516 71.2952L421.598 70.2122L423.763 67.5046L425.927 64.797L429.173 61.0063C431.879 58.8402 432.42 57.7572 432.42 56.6741C431.879 55.5911 432.42 55.5911 432.961 56.1326C433.502 56.6741 435.125 56.1326 435.125 55.0495L437.83 53.9665L440.536 53.425C440.536 52.8834 442.159 52.8834 442.159 53.9665ZM336.11 70.7537V77.252C336.11 79.9596 335.027 83.7503 333.404 86.4579L331.781 90.2485C332.322 90.7901 331.781 91.8731 331.24 92.4146V96.2053C332.322 95.1223 331.781 97.8299 330.158 99.4544L328.535 101.621L326.37 105.953L325.829 107.577L324.747 110.285L324.206 112.451L323.124 114.076L322.042 115.7L321.501 117.325L319.877 120.032C319.336 121.115 318.795 122.74 317.713 123.281L316.631 125.989L315.549 127.072L315.008 127.614V128.155L313.926 129.78C313.926 130.863 312.844 131.946 312.303 131.946C311.22 132.487 310.679 134.112 310.138 136.278L307.974 139.527L307.433 140.61L306.351 141.693L305.81 142.776C306.351 143.318 305.81 143.859 304.728 144.401L303.645 146.025C303.645 147.108 300.94 150.358 297.694 154.148C293.365 159.022 292.824 159.563 292.824 160.647L292.283 161.73L291.201 163.354L288.496 167.145L287.954 166.062C287.954 164.979 287.954 164.437 289.037 164.979C289.578 164.979 290.119 164.979 289.578 164.437L287.413 159.564L287.954 157.939C288.495 157.397 289.037 156.856 288.496 155.231L289.037 152.524L289.578 151.441L290.119 149.816L290.66 148.733V147.108C291.201 146.567 291.742 146.025 291.201 145.484C290.66 144.401 291.201 143.859 291.742 142.776L292.824 140.069L293.365 138.444L293.906 134.653L294.988 131.404V130.321L295.529 129.78L297.694 124.365L298.235 122.74L298.776 121.657L299.317 121.115V119.491L300.399 117.866C302.022 117.325 302.563 115.7 302.022 115.7V114.076L302.563 112.993L303.104 111.368L304.186 108.66C303.645 108.119 303.645 107.577 304.728 107.577C305.269 107.577 306.351 107.036 306.892 104.87L311.761 95.6638L315.008 89.707L317.172 86.4579C320.96 81.5842 322.042 80.5011 322.042 79.4181L323.124 78.335C324.206 78.335 324.747 77.7935 324.747 76.1689C324.747 75.0859 325.288 74.5444 325.829 74.5444C326.911 74.0028 327.452 72.9198 328.535 70.2122L329.076 68.5876L330.158 68.0461L335.027 65.3385C335.568 65.88 336.11 66.963 336.11 70.7537ZM110.484 80.5011C111.025 81.0426 110.484 81.5842 109.943 81.5842L109.402 79.9596C109.402 78.8766 110.484 78.8766 110.484 80.5011ZM112.648 81.0426C112.648 82.1257 112.648 82.1257 112.107 81.5842L111.566 80.5011C112.648 79.4181 112.648 79.9596 112.648 81.0426ZM113.189 83.7503C112.648 84.8333 112.648 84.8333 112.107 84.2918V83.2087C113.189 82.1257 113.73 82.6672 113.189 83.7503ZM120.764 84.8333V85.3748L120.223 84.8333V84.2918L120.764 84.8333ZM514.662 128.155L515.744 130.321C516.826 130.863 516.826 133.57 516.285 134.653L515.744 136.82L514.121 140.61L511.957 147.108L510.333 150.358L509.251 152.524L508.71 153.065L507.628 154.69L506.546 155.773L506.005 156.856L503.841 159.022L501.676 161.188L500.594 163.354L498.971 164.979L496.807 168.228C494.643 169.852 490.855 174.726 490.855 175.809L488.691 177.434C485.985 178.517 484.903 179.6 484.903 181.766C484.903 182.307 484.903 182.849 483.821 182.307L483.28 182.849L482.739 183.932L481.657 184.474L480.575 185.557L478.41 187.723C477.328 190.43 476.787 188.806 476.246 183.932V178.517C476.246 176.351 476.787 174.185 477.869 172.56L478.952 170.935V169.852L480.034 167.686L480.575 164.979L481.657 162.271C482.739 157.939 482.739 156.856 483.821 156.856C484.362 157.397 486.526 155.231 485.444 154.69V154.148L485.985 152.524L487.068 150.358C488.691 149.816 489.773 148.733 490.855 147.108C490.855 146.025 491.396 145.484 492.478 145.484C494.101 145.484 494.643 144.401 494.643 143.318C494.101 142.776 494.643 142.235 495.184 141.693C496.266 141.693 498.43 138.444 497.889 137.361V136.82H499.512C499.512 135.736 500.053 135.736 500.594 135.736C501.676 136.278 504.382 133.57 504.382 131.946L505.464 130.863L507.087 130.321L508.169 129.238L510.875 127.614C513.039 125.448 514.121 125.989 514.662 128.155ZM718.645 130.321L718.104 135.195L717.563 137.361V138.444C718.104 138.444 717.563 140.61 716.481 141.693L715.398 145.484C715.398 147.108 715.398 148.733 713.775 150.358L712.152 154.148L711.07 155.231V155.773C712.152 156.856 711.611 157.939 711.07 157.939C710.529 157.939 709.988 158.48 710.529 159.022L708.906 163.354L707.823 164.437C707.823 165.52 707.282 166.062 706.2 166.603C705.659 167.145 705.118 167.145 705.659 167.686L705.118 168.769L703.495 170.394L700.789 172.56C699.707 173.643 699.166 174.185 699.166 176.892C698.625 179.6 698.084 180.683 696.461 180.683C695.379 180.683 694.838 177.975 696.461 176.351L697.002 173.643V166.062L698.084 162.813L699.166 160.105L699.707 157.939L700.248 155.231L700.789 153.065L702.413 150.899C703.495 149.816 703.495 149.816 702.954 148.733C701.872 147.65 701.331 145.484 702.413 144.942L702.954 142.776L704.577 139.527C707.282 137.361 707.282 136.82 707.282 136.278L708.906 135.195L709.447 134.112C709.447 133.029 714.857 128.155 715.939 128.155L717.563 127.072L718.104 126.531L718.645 129.78V130.321ZM89.3824 133.57L87.7592 134.112C86.6771 134.112 86.6771 134.112 87.7592 133.57L88.8413 133.029L89.3824 133.57ZM78.561 149.816L77.4789 150.899L78.561 148.733V149.816ZM1002.71 155.773C1002.71 156.856 1002.71 156.856 1002.16 156.314L1001.62 155.231C1002.71 154.148 1002.71 154.69 1002.71 155.773ZM199.219 162.813L198.678 164.979V168.228L198.137 173.643V178.517C198.678 179.058 198.678 179.6 197.596 179.6L197.055 180.683L195.973 186.098C195.432 187.181 194.35 190.972 194.891 191.513L194.35 192.596L193.809 193.679L193.268 194.221V196.929L191.644 197.47V201.261C191.644 204.51 191.103 205.593 190.562 206.134L189.48 208.301L188.398 209.925L186.775 211.008V212.633L186.234 214.799L185.151 216.965C183.528 217.506 182.987 219.131 183.528 220.756L181.364 222.922L179.2 224.546L178.118 226.712L175.953 229.42L174.871 230.503L173.789 231.586C173.789 232.669 171.625 234.835 170.002 235.377C168.919 235.918 168.378 235.918 168.919 237.001C168.919 238.084 167.837 238.626 165.132 238.626L161.344 241.875C161.344 242.417 160.262 243.5 158.639 244.041C154.852 245.124 148.359 242.417 147.818 239.167L146.736 237.001C146.195 236.46 145.654 235.377 146.195 234.294L145.653 231.045C144.571 230.503 144.571 228.337 145.112 227.254L145.653 224.546L146.195 221.839V218.59L146.736 215.34L148.359 211.55L148.9 207.759L149.982 206.676L151.605 204.51L152.146 202.344L152.687 201.261L153.77 199.636L154.852 198.553L157.016 196.929C157.016 195.846 157.557 195.304 158.098 195.304C158.639 195.304 160.803 189.347 160.262 188.264L160.803 187.723C161.886 188.264 165.132 185.557 165.132 183.932L166.214 182.849C168.378 182.307 168.919 179.6 167.296 178.517C166.755 177.975 166.755 177.975 167.837 177.434L169.46 176.892C170.002 177.434 170.543 176.892 171.625 175.809L173.248 174.726V175.268L173.789 174.726L174.871 174.185L177.577 172.019C181.364 168.228 181.905 168.228 182.987 168.228C184.069 168.228 187.316 166.062 188.398 164.979L191.103 163.896L193.809 162.271C194.35 161.73 194.891 161.188 196.514 161.188C198.137 161.188 198.678 161.188 199.219 162.813ZM711.07 207.759L709.988 208.301V207.759H711.07ZM916.135 223.463H915.053C913.429 223.463 913.97 222.922 915.053 222.922L916.135 223.463ZM12.5507 237.001C12.5507 238.626 12.0096 238.626 10.9275 237.001C9.30429 235.377 9.84536 234.835 10.9275 235.377C12.0096 235.377 12.5507 236.46 12.5507 237.001ZM6.59895 241.333L6.05788 241.875L5.51681 241.333V240.792L6.59895 241.333ZM311.761 252.164H310.679V251.622L311.761 252.164Z" fill="#1a1a1a"/>
</svg>
