<?xml version="1.0" standalone="no"?>
<!DOCTYPE svg PUBLIC "-//W3C//DTD SVG 20010904//EN"
 "http://www.w3.org/TR/2001/REC-SVG-20010904/DTD/svg10.dtd">
<svg version="1.0" xmlns="http://www.w3.org/2000/svg"
 width="514.000000pt" height="514.000000pt" viewBox="0 0 514.000000 514.000000"
 preserveAspectRatio="xMidYMid meet">
<metadata>
Created by potrace 1.14, written by Peter Selinger 2001-2017
</metadata>
<g transform="translate(0.000000,514.000000) scale(0.100000,-0.100000)"
fill="#000000" stroke="none">
<path d="M1925 4444 c-16 -7 -53 -13 -82 -12 -29 1 -59 -4 -67 -11 -8 -7 -20
-10 -26 -6 -6 4 -21 -2 -33 -13 -24 -22 -78 -56 -115 -72 -12 -5 -25 -18 -29
-27 -4 -10 -15 -27 -25 -38 -74 -79 -128 -168 -148 -240 -7 -27 -18 -56 -24
-64 -13 -17 -17 -181 -6 -253 27 -183 34 -217 50 -248 9 -19 27 -57 39 -85 12
-27 29 -62 37 -77 8 -14 14 -34 14 -45 1 -10 16 -45 35 -78 19 -33 44 -78 56
-100 12 -22 28 -48 36 -57 9 -10 13 -24 9 -33 -5 -14 -28 -15 -173 -11 -249 6
-402 -26 -549 -116 -34 -21 -67 -38 -73 -38 -31 0 -221 -228 -221 -266 0 -6
-14 -45 -32 -85 -27 -65 -31 -84 -30 -159 1 -104 17 -207 35 -229 8 -9 19 -32
26 -51 24 -63 56 -120 68 -120 7 0 13 -5 13 -11 0 -13 72 -85 120 -120 19 -14
60 -33 90 -43 30 -10 69 -22 85 -28 37 -13 118 -29 165 -32 19 -2 40 -4 45 -6
31 -7 240 3 295 15 121 25 165 34 239 45 88 12 104 5 79 -38 -8 -15 -13 -33
-11 -39 3 -7 -3 -13 -12 -13 -9 0 -15 -6 -12 -12 2 -7 -2 -26 -10 -41 -8 -15
-11 -32 -7 -38 3 -6 -2 -19 -11 -29 -18 -20 -78 -317 -67 -335 3 -5 5 -25 3
-45 -1 -20 3 -49 10 -65 6 -17 13 -55 16 -85 3 -30 9 -59 14 -65 5 -5 9 -24 9
-42 0 -19 8 -41 19 -52 10 -10 22 -27 25 -38 7 -22 179 -193 194 -193 6 0 23
-11 39 -23 15 -13 62 -39 103 -58 71 -33 80 -34 175 -32 55 1 117 4 138 7 52
6 136 36 166 58 13 10 30 18 37 18 8 0 14 3 14 8 0 4 16 16 35 26 19 11 35 23
35 28 0 4 7 8 15 8 8 0 22 8 32 18 10 10 37 30 60 46 24 16 59 49 80 74 20 25
48 57 60 70 13 14 23 30 23 37 0 7 8 19 18 29 16 14 34 47 82 146 4 9 11 31
15 50 4 19 13 42 21 50 14 17 33 83 41 145 3 22 8 45 12 50 9 13 7 125 -4 190
-7 42 -6 48 6 39 8 -6 34 -16 59 -23 25 -8 59 -19 75 -26 75 -33 114 -44 165
-49 84 -9 242 -10 268 -2 14 5 22 3 22 -4 0 -6 8 -9 18 -6 9 3 59 10 109 15
54 6 102 16 115 25 12 9 35 16 50 16 17 0 33 8 40 20 7 11 23 20 36 20 13 0
38 11 56 25 18 14 38 25 45 25 6 0 27 16 47 35 19 19 41 35 49 35 8 0 15 7 15
15 0 9 10 19 23 24 12 5 42 33 67 62 25 29 54 62 65 74 24 26 43 54 51 75 3 8
15 34 25 57 10 24 19 49 19 57 0 8 5 18 10 21 6 3 10 21 10 39 0 17 5 37 11
43 24 24 5 347 -21 363 -7 4 -10 15 -7 23 7 18 -25 83 -73 148 -43 60 -151
139 -286 209 -63 32 -118 59 -122 59 -9 1 -106 29 -147 43 -47 17 -123 17
-129 1 -4 -11 -9 -10 -24 4 -21 20 -13 48 20 71 10 7 18 21 18 31 0 10 18 42
39 72 21 30 46 70 55 89 9 19 24 49 34 65 10 17 24 50 31 75 21 78 39 159 34
163 -8 9 -15 55 -19 131 -3 44 -9 85 -15 92 -6 7 -13 39 -16 71 -2 32 -11 72
-19 90 -8 17 -14 34 -14 38 0 4 -9 18 -20 32 -11 14 -20 34 -20 43 0 11 -12
22 -30 28 -19 7 -35 24 -47 49 -10 20 -28 43 -41 49 -12 6 -39 29 -60 52 -48
52 -215 139 -285 148 -29 4 -60 11 -70 16 -10 5 -26 6 -35 2 -9 -4 -37 -9 -62
-11 -25 -3 -70 -12 -100 -20 -30 -9 -74 -17 -97 -17 -22 -1 -45 -4 -49 -8 -4
-5 -17 -8 -29 -8 -32 0 -110 -53 -171 -118 -79 -83 -92 -99 -100 -124 -4 -13
-15 -34 -25 -47 -11 -13 -19 -30 -19 -37 0 -8 -4 -14 -10 -14 -5 0 -10 -7 -10
-15 0 -8 -4 -15 -8 -15 -12 0 -42 34 -42 46 0 6 -53 62 -117 125 -114 111
-184 169 -202 169 -5 0 -27 18 -50 40 -22 22 -48 40 -56 40 -9 0 -51 11 -93
24 -98 31 -168 38 -207 20z m141 -248 c27 -7 70 -24 95 -36 24 -13 51 -26 59
-30 8 -4 21 -19 28 -33 7 -15 18 -27 23 -27 6 0 35 -24 64 -52 29 -29 77 -76
107 -103 46 -44 57 -62 81 -136 28 -83 29 -88 18 -178 -7 -51 -9 -102 -6 -113
4 -10 2 -24 -3 -31 -5 -7 -12 -40 -16 -75 -7 -64 -23 -112 -37 -112 -4 0 -5
-9 -2 -20 3 -12 -1 -28 -10 -38 -22 -24 -55 -104 -49 -120 4 -14 -28 -43 -40
-36 -5 3 -9 -7 -9 -23 -2 -23 -2 -24 -6 -5 -2 12 -12 22 -20 22 -25 0 -83 -23
-83 -32 0 -5 -19 -17 -42 -27 -24 -10 -65 -37 -93 -60 -27 -22 -52 -41 -55
-41 -3 0 -24 18 -48 40 -24 22 -46 40 -49 40 -10 0 -63 63 -63 75 0 6 -11 21
-25 33 -14 12 -25 28 -25 35 0 7 -20 43 -44 81 -25 37 -50 83 -56 102 -6 19
-15 34 -19 34 -9 0 -61 96 -61 111 0 5 -11 32 -25 60 -21 44 -50 161 -68 271
-7 46 12 146 37 196 26 49 140 182 158 182 5 0 22 9 38 20 17 12 55 23 106 28
43 5 81 10 84 11 3 0 28 -5 56 -13z m1349 -46 c50 -11 92 -25 93 -30 2 -6 10
-10 18 -10 8 0 14 -4 14 -8 0 -4 15 -16 33 -27 38 -22 87 -69 87 -84 0 -5 9
-13 20 -16 11 -4 28 -21 36 -38 9 -18 23 -36 30 -40 8 -4 14 -19 14 -33 0 -14
7 -36 16 -49 10 -16 17 -55 20 -112 3 -48 7 -97 9 -107 6 -29 -17 -118 -37
-145 -10 -13 -18 -32 -18 -42 0 -9 -18 -37 -40 -60 -22 -24 -40 -46 -40 -49 0
-3 -18 -16 -40 -30 -22 -13 -40 -28 -40 -34 0 -9 -136 -146 -145 -146 -10 0
-65 -53 -65 -62 0 -5 5 -6 10 -3 6 3 10 4 10 1 0 -4 -180 -135 -204 -147 -71
-38 -72 -38 -90 5 -16 40 -153 176 -176 176 -8 0 -58 22 -110 49 -103 53 -99
45 -84 136 3 22 11 46 17 53 6 8 12 32 14 55 2 23 7 65 12 92 9 56 7 141 -8
294 -9 102 -9 106 16 153 14 26 29 48 34 48 5 0 9 6 9 13 0 28 220 177 261
177 15 0 31 6 37 13 7 8 39 14 84 15 40 2 74 5 77 7 8 8 34 5 126 -15z m487
-1331 c49 -2 88 -7 88 -11 0 -5 8 -8 18 -8 27 -1 120 -35 140 -52 9 -9 38 -28
64 -42 26 -15 58 -36 71 -49 14 -12 45 -35 70 -50 31 -18 44 -33 40 -42 -3 -9
1 -15 11 -15 9 0 16 -4 16 -9 0 -5 5 -22 12 -38 7 -15 13 -39 15 -53 17 -141
18 -179 7 -225 -16 -66 -39 -125 -51 -134 -5 -3 -15 -20 -21 -36 -26 -63 -171
-195 -255 -232 -15 -7 -30 -19 -33 -28 -3 -8 -14 -15 -24 -15 -11 0 -22 -5
-25 -10 -4 -6 -16 -8 -26 -5 -12 4 -31 0 -45 -10 -14 -9 -33 -13 -43 -10 -10
3 -38 1 -62 -4 -51 -11 -233 -16 -300 -7 -25 3 -59 12 -75 21 -16 8 -47 15
-68 15 -44 0 -132 38 -160 69 -11 12 -29 21 -41 21 -30 0 -84 62 -114 130 -13
30 -35 79 -49 108 -25 52 -25 54 -8 83 33 57 46 84 46 102 0 9 4 17 8 17 23 0
82 186 82 260 0 37 4 60 11 60 6 0 33 18 60 41 27 22 55 42 61 43 22 4 106 45
112 55 3 5 35 17 71 26 36 10 69 23 74 29 10 11 150 13 323 5z m-2287 -64 c6
-1 17 -5 25 -8 8 -3 35 -8 60 -12 41 -5 99 -27 202 -75 25 -11 34 -20 27 -27
-18 -18 -31 -237 -17 -283 25 -86 52 -151 69 -166 10 -9 19 -21 19 -26 0 -5
11 -25 24 -44 24 -35 24 -36 5 -55 -10 -10 -19 -23 -19 -27 0 -8 -35 -23 -208
-87 -40 -15 -80 -24 -89 -21 -16 6 -115 -12 -218 -40 -103 -27 -296 -14 -461
32 -64 18 -164 72 -164 89 0 7 -7 19 -17 26 -22 19 -53 88 -53 122 0 15 -5 27
-11 27 -8 0 -10 34 -7 113 4 101 8 118 35 170 32 61 41 72 111 140 44 42 134
97 162 97 8 1 33 9 55 20 22 11 52 19 67 20 15 0 29 4 32 9 4 5 63 10 133 10
70 1 129 4 132 7 5 5 69 -2 106 -11z m683 -835 c22 -11 47 -20 55 -20 8 0 29
-7 47 -17 29 -14 48 -15 164 -5 156 13 150 12 204 40 47 25 72 18 72 -19 0
-11 7 -19 16 -19 9 0 21 -13 27 -30 6 -16 17 -30 24 -30 12 0 27 -23 58 -90
20 -43 44 -215 33 -232 -4 -7 -5 -36 -2 -64 4 -35 1 -62 -10 -88 -9 -21 -16
-47 -16 -58 0 -12 -13 -47 -30 -80 -16 -32 -30 -65 -30 -73 0 -8 -6 -18 -13
-22 -16 -11 -97 -120 -97 -132 0 -5 -22 -23 -50 -41 -27 -17 -52 -39 -55 -48
-5 -17 -58 -52 -78 -52 -6 0 -23 -12 -38 -26 -14 -14 -33 -27 -40 -28 -31 -6
-49 -19 -49 -35 0 -14 -2 -14 -10 -1 -8 12 -14 12 -45 1 -29 -10 -39 -10 -51
0 -13 11 -18 10 -26 -5 -9 -16 -18 -17 -69 -12 -70 8 -139 37 -157 65 -7 12
-19 21 -27 21 -31 0 -129 129 -154 204 -37 107 -36 184 6 336 8 30 16 64 17
76 1 11 5 25 9 31 4 6 4 18 1 27 -3 9 -1 16 5 16 6 0 11 11 11 24 0 14 17 51
39 83 21 32 42 69 46 83 4 14 15 34 25 45 10 11 32 50 48 86 26 57 69 109 91
109 4 0 26 -9 49 -20z"/>
</g>
</svg>
